<svg width="181" height="42" viewBox="0 0 181 42" fill="none" xmlns="http://www.w3.org/2000/svg">
<path d="M28.792 31.252C27.336 31.252 26.02 30.9253 24.844 30.272C23.668 29.6 22.744 28.6667 22.072 27.472C21.4 26.2587 21.064 24.8587 21.064 23.272C21.064 21.704 21.4093 20.3133 22.1 19.1C22.7907 17.8867 23.7333 16.9533 24.928 16.3C26.1227 15.6467 27.4573 15.32 28.932 15.32C30.4067 15.32 31.7413 15.6467 32.936 16.3C34.1307 16.9533 35.0733 17.8867 35.764 19.1C36.4547 20.3133 36.8 21.704 36.8 23.272C36.8 24.84 36.4453 26.2307 35.736 27.444C35.0267 28.6573 34.056 29.6 32.824 30.272C31.6107 30.9253 30.2667 31.252 28.792 31.252ZM28.792 28.48C29.6133 28.48 30.3787 28.284 31.088 27.892C31.816 27.5 32.404 26.912 32.852 26.128C33.3 25.344 33.524 24.392 33.524 23.272C33.524 22.152 33.3093 21.2093 32.88 20.444C32.4507 19.66 31.8813 19.072 31.172 18.68C30.4627 18.288 29.6973 18.092 28.876 18.092C28.0547 18.092 27.2893 18.288 26.58 18.68C25.8893 19.072 25.3387 19.66 24.928 20.444C24.5173 21.2093 24.312 22.152 24.312 23.272C24.312 24.9333 24.732 26.2213 25.572 27.136C26.4307 28.032 27.504 28.48 28.792 28.48ZM47.7395 15.32C48.9528 15.32 50.0355 15.572 50.9875 16.076C51.9581 16.58 52.7141 17.3267 53.2555 18.316C53.7968 19.3053 54.0675 20.5 54.0675 21.9V31H50.9035V22.376C50.9035 20.9947 50.5581 19.94 49.8675 19.212C49.1768 18.4653 48.2341 18.092 47.0395 18.092C45.8448 18.092 44.8928 18.4653 44.1835 19.212C43.4928 19.94 43.1475 20.9947 43.1475 22.376V31H39.9555V15.572H43.1475V17.336C43.6701 16.7013 44.3328 16.2067 45.1355 15.852C45.9568 15.4973 46.8248 15.32 47.7395 15.32ZM64.3551 15.32C65.5497 15.32 66.6044 15.5627 67.5191 16.048C68.4524 16.5147 69.1804 17.1027 69.7031 17.812V15.572H72.9231V31.252C72.9231 32.6707 72.6244 33.9307 72.0271 35.032C71.4297 36.152 70.5617 37.0293 69.4231 37.664C68.3031 38.2987 66.9591 38.616 65.3911 38.616C63.3004 38.616 61.5644 38.1213 60.1831 37.132C58.8017 36.1613 58.0177 34.836 57.8311 33.156H60.9951C61.2377 33.9587 61.7511 34.6027 62.5351 35.088C63.3377 35.592 64.2897 35.844 65.3911 35.844C66.6791 35.844 67.7151 35.452 68.4991 34.668C69.3017 33.884 69.7031 32.7453 69.7031 31.252V28.676C69.1617 29.404 68.4244 30.02 67.4911 30.524C66.5764 31.0093 65.5311 31.252 64.3551 31.252C63.0111 31.252 61.7791 30.916 60.6591 30.244C59.5577 29.5533 58.6804 28.6013 58.0271 27.388C57.3924 26.156 57.0751 24.7653 57.0751 23.216C57.0751 21.6667 57.3924 20.2947 58.0271 19.1C58.6804 17.9053 59.5577 16.9813 60.6591 16.328C61.7791 15.656 63.0111 15.32 64.3551 15.32ZM69.7031 23.272C69.7031 22.208 69.4791 21.284 69.0311 20.5C68.6017 19.716 68.0324 19.1187 67.3231 18.708C66.6137 18.2973 65.8484 18.092 65.0271 18.092C64.2057 18.092 63.4404 18.2973 62.7311 18.708C62.0217 19.1 61.4431 19.688 60.9951 20.472C60.5657 21.2373 60.3511 22.152 60.3511 23.216C60.3511 24.28 60.5657 25.2133 60.9951 26.016C61.4431 26.8187 62.0217 27.4347 62.7311 27.864C63.4591 28.2747 64.2244 28.48 65.0271 28.48C65.8484 28.48 66.6137 28.2747 67.3231 27.864C68.0324 27.4533 68.6017 26.856 69.0311 26.072C69.4791 25.2693 69.7031 24.336 69.7031 23.272ZM76.3596 21.2C76.3596 19.2773 76.7796 17.56 77.6196 16.048C78.4596 14.5173 79.6076 13.332 81.0636 12.492C82.5196 11.6333 84.1436 11.204 85.9356 11.204C88.1196 11.204 89.9863 11.7267 91.5356 12.772C93.1036 13.7987 94.2423 15.2547 94.9516 17.14H92.6556C92.0956 15.8147 91.237 14.7787 90.0796 14.032C88.941 13.2853 87.5596 12.912 85.9356 12.912C84.4983 12.912 83.201 13.248 82.0436 13.92C80.905 14.592 80.009 15.5627 79.3556 16.832C78.7023 18.0827 78.3756 19.5387 78.3756 21.2C78.3756 22.8613 78.7023 24.3173 79.3556 25.568C80.009 26.8187 80.905 27.78 82.0436 28.452C83.201 29.124 84.4983 29.46 85.9356 29.46C87.5596 29.46 88.941 29.096 90.0796 28.368C91.237 27.6213 92.0956 26.5947 92.6556 25.288H94.9516C94.2423 27.1547 93.1036 28.6013 91.5356 29.628C89.9676 30.6547 88.101 31.168 85.9356 31.168C84.1436 31.168 82.5196 30.748 81.0636 29.908C79.6076 29.0493 78.4596 27.864 77.6196 26.352C76.7796 24.84 76.3596 23.1227 76.3596 21.2ZM106.137 15.432C107.295 15.432 108.331 15.6747 109.245 16.16C110.179 16.6453 110.907 17.392 111.429 18.4C111.971 19.3893 112.241 20.6027 112.241 22.04V31H110.309V22.264C110.309 20.6027 109.889 19.3333 109.049 18.456C108.228 17.5787 107.099 17.14 105.661 17.14C104.187 17.14 103.011 17.6067 102.133 18.54C101.256 19.4733 100.817 20.8453 100.817 22.656V31H98.8572V10.28H100.817V18.316C101.303 17.4013 102.012 16.692 102.945 16.188C103.897 15.684 104.961 15.432 106.137 15.432ZM115.68 23.328C115.68 21.76 115.988 20.388 116.604 19.212C117.239 18.0173 118.107 17.1027 119.208 16.468C120.328 15.8147 121.588 15.488 122.988 15.488C124.444 15.488 125.695 15.824 126.74 16.496C127.804 17.168 128.569 18.0267 129.036 19.072V15.712H130.996V31H129.036V27.612C128.551 28.6573 127.776 29.5253 126.712 30.216C125.667 30.888 124.416 31.224 122.96 31.224C121.579 31.224 120.328 30.8973 119.208 30.244C118.107 29.5907 117.239 28.6667 116.604 27.472C115.988 26.2773 115.68 24.896 115.68 23.328ZM129.036 23.356C129.036 22.124 128.784 21.0413 128.28 20.108C127.776 19.1747 127.085 18.456 126.208 17.952C125.349 17.448 124.397 17.196 123.352 17.196C122.269 17.196 121.299 17.4387 120.44 17.924C119.581 18.4093 118.9 19.1187 118.396 20.052C117.911 20.9667 117.668 22.0587 117.668 23.328C117.668 24.5787 117.911 25.68 118.396 26.632C118.9 27.5653 119.581 28.284 120.44 28.788C121.299 29.2733 122.269 29.516 123.352 29.516C124.397 29.516 125.349 29.264 126.208 28.76C127.085 28.256 127.776 27.5373 128.28 26.604C128.784 25.6707 129.036 24.588 129.036 23.356ZM153.67 15.432C155.462 15.432 156.918 16.0013 158.038 17.14C159.177 18.26 159.746 19.8933 159.746 22.04V31H157.814V22.264C157.814 20.6027 157.413 19.3333 156.61 18.456C155.808 17.5787 154.716 17.14 153.334 17.14C151.897 17.14 150.749 17.616 149.89 18.568C149.032 19.52 148.602 20.9013 148.602 22.712V31H146.67V22.264C146.67 20.6027 146.269 19.3333 145.466 18.456C144.664 17.5787 143.562 17.14 142.162 17.14C140.725 17.14 139.577 17.616 138.718 18.568C137.86 19.52 137.43 20.9013 137.43 22.712V31H135.47V15.712H137.43V18.344C137.916 17.392 138.606 16.6733 139.502 16.188C140.398 15.684 141.397 15.432 142.498 15.432C143.824 15.432 144.981 15.7493 145.97 16.384C146.978 17.0187 147.706 17.952 148.154 19.184C148.565 17.9707 149.265 17.0467 150.254 16.412C151.262 15.7587 152.401 15.432 153.67 15.432ZM166.031 19.072C166.517 18.0453 167.282 17.196 168.327 16.524C169.391 15.8333 170.651 15.488 172.107 15.488C173.489 15.488 174.73 15.8147 175.831 16.468C176.951 17.1027 177.819 18.0173 178.435 19.212C179.07 20.388 179.387 21.76 179.387 23.328C179.387 24.896 179.07 26.2773 178.435 27.472C177.819 28.6667 176.951 29.5907 175.831 30.244C174.73 30.8973 173.489 31.224 172.107 31.224C170.67 31.224 169.419 30.888 168.355 30.216C167.291 29.5253 166.517 28.6667 166.031 27.64V38.224H164.099V15.712H166.031V19.072ZM177.399 23.328C177.399 22.0587 177.147 20.9667 176.643 20.052C176.158 19.1187 175.486 18.4093 174.627 17.924C173.769 17.4387 172.798 17.196 171.715 17.196C170.67 17.196 169.709 17.448 168.831 17.952C167.973 18.456 167.291 19.1747 166.787 20.108C166.283 21.0413 166.031 22.124 166.031 23.356C166.031 24.588 166.283 25.6707 166.787 26.604C167.291 27.5373 167.973 28.256 168.831 28.76C169.709 29.264 170.67 29.516 171.715 29.516C172.798 29.516 173.769 29.2733 174.627 28.788C175.486 28.284 176.158 27.5653 176.643 26.632C177.147 25.68 177.399 24.5787 177.399 23.328Z" fill="#EDE9F9"/>
<g clip-path="url(#clip0_150_675)">
<path fill-rule="evenodd" clip-rule="evenodd" d="M0 7H4.14003V31H0V7Z" fill="white"/>
<path fill-rule="evenodd" clip-rule="evenodd" d="M5.17505 7H8.87151V10.6686H5.17505V7Z" fill="#6647BF"/>
<path fill-rule="evenodd" clip-rule="evenodd" d="M9.9436 7C15.0078 7 19 10.8057 19 15.4C19 19.9943 15.0077 23.7999 9.98058 23.7999V20.1314C12.7899 20.0971 14.86 17.8686 14.86 15.4C14.86 12.7943 12.642 10.6686 9.9436 10.6686V7Z" fill="white"/>
<path fill-rule="evenodd" clip-rule="evenodd" d="M7.06039 19.9943C8.24335 19.9943 9.16747 20.8857 9.16747 21.9485C9.16747 23.0457 8.24335 23.9371 7.06039 23.9371C5.87759 23.9371 4.9165 23.0457 4.9165 21.9485C4.9165 20.8857 5.87759 19.9943 7.06039 19.9943Z" fill="#6647BF"/>
</g>
<defs>
<clipPath id="clip0_150_675">
<rect width="19" height="24" fill="white" transform="translate(0 7)"/>
</clipPath>
</defs>
</svg>
