<svg width="128" height="30" viewBox="0 0 128 30" fill="none" xmlns="http://www.w3.org/2000/svg">
<path d="M19.28 22.18C18.24 22.18 17.3 21.9467 16.46 21.48C15.62 21 14.96 20.3333 14.48 19.48C14 18.6133 13.76 17.6133 13.76 16.48C13.76 15.36 14.0067 14.3667 14.5 13.5C14.9933 12.6333 15.6667 11.9667 16.52 11.5C17.3733 11.0333 18.3267 10.8 19.38 10.8C20.4333 10.8 21.3867 11.0333 22.24 11.5C23.0933 11.9667 23.7667 12.6333 24.26 13.5C24.7533 14.3667 25 15.36 25 16.48C25 17.6 24.7467 18.5933 24.24 19.46C23.7333 20.3267 23.04 21 22.16 21.48C21.2933 21.9467 20.3333 22.18 19.28 22.18ZM19.28 20.2C19.8667 20.2 20.4133 20.06 20.92 19.78C21.44 19.5 21.86 19.08 22.18 18.52C22.5 17.96 22.66 17.28 22.66 16.48C22.66 15.68 22.5067 15.0067 22.2 14.46C21.8933 13.9 21.4867 13.48 20.98 13.2C20.4733 12.92 19.9267 12.78 19.34 12.78C18.7533 12.78 18.2067 12.92 17.7 13.2C17.2067 13.48 16.8133 13.9 16.52 14.46C16.2267 15.0067 16.08 15.68 16.08 16.48C16.08 17.6667 16.38 18.5867 16.98 19.24C17.5933 19.88 18.36 20.2 19.28 20.2ZM32.8139 10.8C33.6806 10.8 34.4539 10.98 35.1339 11.34C35.8272 11.7 36.3672 12.2333 36.7539 12.94C37.1406 13.6467 37.3339 14.5 37.3339 15.5V22H35.0739V15.84C35.0739 14.8533 34.8272 14.1 34.3339 13.58C33.8406 13.0467 33.1672 12.78 32.3139 12.78C31.4606 12.78 30.7806 13.0467 30.2739 13.58C29.7806 14.1 29.5339 14.8533 29.5339 15.84V22H27.2539V10.98H29.5339V12.24C29.9072 11.7867 30.3806 11.4333 30.9539 11.18C31.5406 10.9267 32.1606 10.8 32.8139 10.8ZM44.6822 10.8C45.5355 10.8 46.2889 10.9733 46.9422 11.32C47.6089 11.6533 48.1289 12.0733 48.5022 12.58V10.98H50.8022V22.18C50.8022 23.1933 50.5889 24.0933 50.1622 24.88C49.7355 25.68 49.1155 26.3067 48.3022 26.76C47.5022 27.2133 46.5422 27.44 45.4222 27.44C43.9289 27.44 42.6889 27.0867 41.7022 26.38C40.7155 25.6867 40.1555 24.74 40.0222 23.54H42.2822C42.4555 24.1133 42.8222 24.5733 43.3822 24.92C43.9555 25.28 44.6355 25.46 45.4222 25.46C46.3422 25.46 47.0822 25.18 47.6422 24.62C48.2155 24.06 48.5022 23.2467 48.5022 22.18V20.34C48.1155 20.86 47.5889 21.3 46.9222 21.66C46.2689 22.0067 45.5222 22.18 44.6822 22.18C43.7222 22.18 42.8422 21.94 42.0422 21.46C41.2555 20.9667 40.6289 20.2867 40.1622 19.42C39.7089 18.54 39.4822 17.5467 39.4822 16.44C39.4822 15.3333 39.7089 14.3533 40.1622 13.5C40.6289 12.6467 41.2555 11.9867 42.0422 11.52C42.8422 11.04 43.7222 10.8 44.6822 10.8ZM48.5022 16.48C48.5022 15.72 48.3422 15.06 48.0222 14.5C47.7155 13.94 47.3089 13.5133 46.8022 13.22C46.2955 12.9267 45.7489 12.78 45.1622 12.78C44.5755 12.78 44.0289 12.9267 43.5222 13.22C43.0155 13.5 42.6022 13.92 42.2822 14.48C41.9755 15.0267 41.8222 15.68 41.8222 16.44C41.8222 17.2 41.9755 17.8667 42.2822 18.44C42.6022 19.0133 43.0155 19.4533 43.5222 19.76C44.0422 20.0533 44.5889 20.2 45.1622 20.2C45.7489 20.2 46.2955 20.0533 46.8022 19.76C47.3089 19.4667 47.7155 19.04 48.0222 18.48C48.3422 17.9067 48.5022 17.24 48.5022 16.48ZM53.2569 15C53.2569 13.6267 53.5569 12.4 54.1569 11.32C54.7569 10.2267 55.5769 9.38 56.6169 8.78C57.6569 8.16667 58.8169 7.86 60.0969 7.86C61.6569 7.86 62.9902 8.23333 64.0969 8.98C65.2169 9.71333 66.0302 10.7533 66.5369 12.1H64.8969C64.4969 11.1533 63.8835 10.4133 63.0569 9.88C62.2435 9.34667 61.2569 9.08 60.0969 9.08C59.0702 9.08 58.1435 9.32 57.3169 9.8C56.5035 10.28 55.8635 10.9733 55.3969 11.88C54.9302 12.7733 54.6969 13.8133 54.6969 15C54.6969 16.1867 54.9302 17.2267 55.3969 18.12C55.8635 19.0133 56.5035 19.7 57.3169 20.18C58.1435 20.66 59.0702 20.9 60.0969 20.9C61.2569 20.9 62.2435 20.64 63.0569 20.12C63.8835 19.5867 64.4969 18.8533 64.8969 17.92H66.5369C66.0302 19.2533 65.2169 20.2867 64.0969 21.02C62.9769 21.7533 61.6435 22.12 60.0969 22.12C58.8169 22.12 57.6569 21.82 56.6169 21.22C55.5769 20.6067 54.7569 19.76 54.1569 18.68C53.5569 17.6 53.2569 16.3733 53.2569 15ZM74.5266 10.88C75.3532 10.88 76.0932 11.0533 76.7466 11.4C77.4132 11.7467 77.9332 12.28 78.3066 13C78.6932 13.7067 78.8866 14.5733 78.8866 15.6V22H77.5066V15.76C77.5066 14.5733 77.2066 13.6667 76.6066 13.04C76.0199 12.4133 75.2132 12.1 74.1866 12.1C73.1332 12.1 72.2932 12.4333 71.6666 13.1C71.0399 13.7667 70.7266 14.7467 70.7266 16.04V22H69.3266V7.2H70.7266V12.94C71.0732 12.2867 71.5799 11.78 72.2466 11.42C72.9266 11.06 73.6866 10.88 74.5266 10.88ZM81.3428 16.52C81.3428 15.4 81.5628 14.42 82.0028 13.58C82.4561 12.7267 83.0761 12.0733 83.8628 11.62C84.6628 11.1533 85.5628 10.92 86.5628 10.92C87.6028 10.92 88.4961 11.16 89.2428 11.64C90.0028 12.12 90.5495 12.7333 90.8828 13.48V11.08H92.2828V22H90.8828V19.58C90.5361 20.3267 89.9828 20.9467 89.2228 21.44C88.4761 21.92 87.5828 22.16 86.5428 22.16C85.5561 22.16 84.6628 21.9267 83.8628 21.46C83.0761 20.9933 82.4561 20.3333 82.0028 19.48C81.5628 18.6267 81.3428 17.64 81.3428 16.52ZM90.8828 16.54C90.8828 15.66 90.7028 14.8867 90.3428 14.22C89.9828 13.5533 89.4895 13.04 88.8628 12.68C88.2495 12.32 87.5695 12.14 86.8228 12.14C86.0495 12.14 85.3561 12.3133 84.7428 12.66C84.1295 13.0067 83.6428 13.5133 83.2828 14.18C82.9361 14.8333 82.7628 15.6133 82.7628 16.52C82.7628 17.4133 82.9361 18.2 83.2828 18.88C83.6428 19.5467 84.1295 20.06 84.7428 20.42C85.3561 20.7667 86.0495 20.94 86.8228 20.94C87.5695 20.94 88.2495 20.76 88.8628 20.4C89.4895 20.04 89.9828 19.5267 90.3428 18.86C90.7028 18.1933 90.8828 17.42 90.8828 16.54ZM108.479 10.88C109.759 10.88 110.799 11.2867 111.599 12.1C112.412 12.9 112.819 14.0667 112.819 15.6V22H111.439V15.76C111.439 14.5733 111.152 13.6667 110.579 13.04C110.006 12.4133 109.226 12.1 108.239 12.1C107.212 12.1 106.392 12.44 105.779 13.12C105.166 13.8 104.859 14.7867 104.859 16.08V22H103.479V15.76C103.479 14.5733 103.192 13.6667 102.619 13.04C102.046 12.4133 101.259 12.1 100.259 12.1C99.2322 12.1 98.4122 12.44 97.7989 13.12C97.1856 13.8 96.8789 14.7867 96.8789 16.08V22H95.4789V11.08H96.8789V12.96C97.2256 12.28 97.7189 11.7667 98.3589 11.42C98.9989 11.06 99.7122 10.88 100.499 10.88C101.446 10.88 102.272 11.1067 102.979 11.56C103.699 12.0133 104.219 12.68 104.539 13.56C104.832 12.6933 105.332 12.0333 106.039 11.58C106.759 11.1133 107.572 10.88 108.479 10.88ZM117.308 13.48C117.655 12.7467 118.201 12.14 118.948 11.66C119.708 11.1667 120.608 10.92 121.648 10.92C122.635 10.92 123.521 11.1533 124.308 11.62C125.108 12.0733 125.728 12.7267 126.168 13.58C126.621 14.42 126.848 15.4 126.848 16.52C126.848 17.64 126.621 18.6267 126.168 19.48C125.728 20.3333 125.108 20.9933 124.308 21.46C123.521 21.9267 122.635 22.16 121.648 22.16C120.621 22.16 119.728 21.92 118.968 21.44C118.208 20.9467 117.655 20.3333 117.308 19.6V27.16H115.928V11.08H117.308V13.48ZM125.428 16.52C125.428 15.6133 125.248 14.8333 124.888 14.18C124.541 13.5133 124.061 13.0067 123.448 12.66C122.835 12.3133 122.141 12.14 121.368 12.14C120.621 12.14 119.935 12.32 119.308 12.68C118.695 13.04 118.208 13.5533 117.848 14.22C117.488 14.8867 117.308 15.66 117.308 16.54C117.308 17.42 117.488 18.1933 117.848 18.86C118.208 19.5267 118.695 20.04 119.308 20.4C119.935 20.76 120.621 20.94 121.368 20.94C122.141 20.94 122.835 20.7667 123.448 20.42C124.061 20.06 124.541 19.5467 124.888 18.88C125.248 18.2 125.428 17.4133 125.428 16.52Z" fill="#EDE9F9"/>
<g clip-path="url(#clip0_143_2407)">
<path fill-rule="evenodd" clip-rule="evenodd" d="M0 7H2.61475V22.4286H0V7Z" fill="white"/>
<path fill-rule="evenodd" clip-rule="evenodd" d="M3.26843 7H5.60304V9.35841H3.26843V7Z" fill="#6647BF"/>
<path fill-rule="evenodd" clip-rule="evenodd" d="M6.28015 7C9.47856 7 12 9.4465 12 12.4C12 15.3534 9.47856 17.7999 6.30351 17.7999V15.4416C8.07781 15.4196 9.38525 13.9869 9.38525 12.4C9.38525 10.7249 7.9844 9.35841 6.28015 9.35841V7Z" fill="white"/>
<path fill-rule="evenodd" clip-rule="evenodd" d="M4.45914 15.3535C5.20627 15.3535 5.78992 15.9265 5.78992 16.6097C5.78992 17.3151 5.20627 17.8882 4.45914 17.8882C3.71211 17.8882 3.1051 17.3151 3.1051 16.6097C3.1051 15.9265 3.71211 15.3535 4.45914 15.3535Z" fill="#6647BF"/>
</g>
<defs>
<clipPath id="clip0_143_2407">
<rect width="12" height="15.4286" fill="white" transform="translate(0 7)"/>
</clipPath>
</defs>
</svg>
