<svg width="19" height="24" viewBox="0 0 19 24" fill="none" xmlns="http://www.w3.org/2000/svg">
<path fill-rule="evenodd" clip-rule="evenodd" d="M0 0H4.14003V24H0V0Z" fill="white"/>
<path fill-rule="evenodd" clip-rule="evenodd" d="M5.17505 0H8.87151V3.66863H5.17505V0Z" fill="#6647BF"/>
<path fill-rule="evenodd" clip-rule="evenodd" d="M9.9436 0C15.0078 0 19 3.80567 19 8.40004C19 12.9943 15.0077 16.7999 9.98058 16.7999V13.1314C12.7899 13.0971 14.86 10.8686 14.86 8.40004C14.86 5.79433 12.642 3.66863 9.9436 3.66863V0Z" fill="white"/>
<path fill-rule="evenodd" clip-rule="evenodd" d="M7.06039 12.9943C8.24335 12.9943 9.16747 13.8857 9.16747 14.9485C9.16747 16.0457 8.24335 16.9371 7.06039 16.9371C5.87759 16.9371 4.9165 16.0457 4.9165 14.9485C4.9165 13.8857 5.87759 12.9943 7.06039 12.9943Z" fill="#6647BF"/>
</svg>
