<svg width="13" height="13" viewBox="0 0 13 13" fill="none" xmlns="http://www.w3.org/2000/svg">
<path d="M11.9487 2.46883L8.32623 6.05216L11.9173 9.60442C12.4955 10.1764 12.4914 11.1077 11.9081 11.6847C11.3249 12.2617 10.3833 12.2657 9.80513 11.6938L6.21408 8.1415L2.59162 11.7248C1.99172 12.2077 1.1238 12.1671 0.581583 11.6308C0.039368 11.0944 -0.00168168 10.2359 0.486516 9.64247L4.09762 6.07037L0.517829 2.52925C0.0348366 1.94001 0.0834472 1.08109 0.630405 0.540036C1.17736 -0.00101362 2.04567 -0.0490975 2.64134 0.428677L6.22113 3.9698L9.84359 0.38647C10.4435 -0.0964541 11.3114 -0.0558486 11.8536 0.480509C12.3958 1.01687 12.4369 1.87541 11.9487 2.46883Z" fill="#EDE9F9"/>
</svg>
