<svg width="15" height="15" viewBox="0 0 15 15" fill="none" xmlns="http://www.w3.org/2000/svg">
<path fill-rule="evenodd" clip-rule="evenodd" d="M11.0007 1.7041V2.64771H12.497H12.4982V2.65015C12.9708 2.65137 13.3992 2.8418 13.7085 3.15064C14.0154 3.45703 14.2068 3.88062 14.2081 4.34937H14.2105V4.35181V13.2959V13.2971H14.2081C14.2068 13.7659 14.0154 14.1919 13.7048 14.5007C13.3967 14.8059 12.9708 14.9963 12.4994 14.9976V15H12.497H4.92342H4.92219V14.9976C4.45084 14.9963 4.02122 14.8059 3.7119 14.4971C3.40503 14.1907 3.21354 13.7671 3.21231 13.2983H3.20986V13.2959V11.2927H1.71356H1.71233V11.2903C1.24098 11.2891 0.811364 11.0986 0.502039 10.7898C0.195169 10.4834 0.00368244 10.0598 0.00245496 9.59107H0V9.58862V1.7041V1.70288H0.00245496C0.00368244 1.23291 0.196397 0.806885 0.505721 0.499268C0.813819 0.194092 1.23975 0.00366211 1.71111 0.00244141V0H1.71356H9.28711H9.28833V0.00244141C9.76091 0.00366211 10.1893 0.194092 10.4986 0.50293C10.8055 0.809326 10.997 1.23291 10.9982 1.70166H11.0007V1.7041ZM9.70199 2.64771V1.7041V1.70166H9.70445C9.70445 1.59058 9.65658 1.48804 9.58047 1.41235C9.5056 1.33789 9.40126 1.29028 9.28956 1.29028V1.29272H9.28833H1.71479H1.71233V1.29028C1.60063 1.29028 1.49752 1.33789 1.42142 1.41357C1.34654 1.48804 1.29867 1.5918 1.29867 1.70288H1.30113V1.7041V9.58862V9.59107H1.29867C1.29867 9.70215 1.34654 9.80469 1.42265 9.88037C1.49752 9.95483 1.60186 10.0024 1.71356 10.0024V10H1.71479H3.21109V4.35181V4.35059H3.21354C3.21477 3.88062 3.40748 3.45459 3.71681 3.14697C4.0249 2.8418 4.45084 2.65137 4.92219 2.65015V2.64771H4.92465H9.70199ZM12.9106 13.2959V4.35181V4.34937H12.9131C12.9131 4.23828 12.8652 4.13574 12.7891 4.06006C12.7142 3.9856 12.6099 3.93799 12.4982 3.93799V3.94043H12.497H4.92342H4.92096V3.93799C4.80926 3.93799 4.70616 3.9856 4.63005 4.06128C4.55518 4.13574 4.5073 4.2395 4.5073 4.35059H4.50976V4.35181V13.2959V13.2983H4.5073C4.5073 13.4094 4.55518 13.512 4.63128 13.5876C4.70616 13.6621 4.81049 13.7097 4.92219 13.7097V13.7073H4.92342H12.497H12.4994V13.7097C12.6111 13.7097 12.7142 13.6621 12.7903 13.5864C12.8652 13.512 12.9131 13.4082 12.9131 13.2971H12.9106V13.2959Z" fill="#847E9D"/>
</svg>
