<svg width="19" height="15" viewBox="0 0 19 15" fill="none" xmlns="http://www.w3.org/2000/svg">
<path d="M15.1336 0L12.7444 4.91769L9.07043 0H15.1336Z" fill="#199CF4"/>
<path d="M18.1554 4.91274L12.7444 4.91769L15.1336 0L18.1554 4.91274Z" fill="#29D5FB"/>
<path d="M9.07044 0L5.39112 4.9253L3.00687 0H9.07044Z" fill="#199CF4"/>
<path d="M5.39112 4.9253L0 4.92987L3.00686 0L5.39112 4.9253Z" fill="#29D5FB"/>
<path d="M9.07044 14.8246L0 4.92986L5.39112 4.92529L9.07044 14.8246Z" fill="#15BDF9"/>
<path d="M18.1553 4.91272L9.07043 14.8246L12.7444 4.91767L18.1553 4.91272Z" fill="#15BDF9"/>
<path d="M12.7445 4.91769L5.39114 4.9253L9.07047 0L12.7445 4.91769Z" fill="#15BDF9"/>
<path d="M12.7445 4.91772L9.07047 14.8247L5.39114 4.92534L12.7445 4.91772Z" fill="#199CF4"/>
<g opacity="0.1">
<path d="M18.1553 4.91274L9.07043 14.8246V0H15.1336L18.1553 4.91274Z" fill="#231F20"/>
</g>
</svg>
