<svg width="4" height="15" viewBox="0 0 4 15" fill="none" xmlns="http://www.w3.org/2000/svg">
<path d="M3.46387 1.95878C3.46387 2.77262 2.8027 3.43379 1.99132 3.43379C1.17871 3.43379 0.516303 2.77262 0.516303 1.95878C0.516304 1.14493 1.17871 0.483765 1.99132 0.483765C2.8027 0.483765 3.46387 1.14494 3.46387 1.95878ZM3.46387 7.47358C3.46387 8.28742 2.8027 8.94859 1.99132 8.94859C1.1787 8.94859 0.516303 8.28742 0.516303 7.47358C0.516303 6.65974 1.1787 5.99857 1.99132 5.99857C2.8027 5.99857 3.46387 6.65974 3.46387 7.47358ZM3.46387 12.9888C3.46387 13.8026 2.8027 14.4638 1.99132 14.4638C1.1787 14.4638 0.516303 13.8026 0.516303 12.9888C0.516303 12.1749 1.1787 11.5137 1.99132 11.5137C2.8027 11.5137 3.46387 12.1749 3.46387 12.9888Z" fill="#EDE9F9"/>
</svg>
