<svg width="21" height="18" viewBox="0 0 21 18" fill="none" xmlns="http://www.w3.org/2000/svg">
<path d="M7.67107 11.3298C4.00857 11.3298 0.881592 11.9154 0.881592 14.2548C0.881592 16.5934 3.98955 17.2 7.67107 17.2C11.3327 17.2 14.4605 16.6145 14.4605 14.275C14.4605 11.9356 11.3526 11.3298 7.67107 11.3298Z" fill="#7B73AE"/>
<path opacity="0.4" d="M7.67108 9.10171C10.1647 9.10171 12.1636 7.07707 12.1636 4.55131C12.1636 2.02556 10.1647 0 7.67108 0C5.17747 0 3.17859 2.02556 3.17859 4.55131C3.17859 7.07707 5.17747 9.10171 7.67108 9.10171Z" fill="#7B73AE"/>
<path opacity="0.4" d="M15.8155 10.1842C15.6441 10.1842 15.4726 10.125 15.3417 10.0059L13.5253 8.35251C13.2635 8.11422 13.2635 7.72824 13.5253 7.49065C13.7871 7.25237 14.2104 7.25167 14.4722 7.48995L15.8155 8.71272L18.9753 5.83661C19.237 5.59833 19.6603 5.59833 19.9221 5.83661C20.1839 6.07489 20.1839 6.46088 19.9221 6.69916L16.2893 10.0059C16.1584 10.125 15.987 10.1842 15.8155 10.1842Z" fill="#7B73AE"/>
</svg>
