<svg width="26" height="23" viewBox="0 0 26 23" fill="none" xmlns="http://www.w3.org/2000/svg">
<path d="M0.0350365 1.5875L1.63504 0L22.535 20.9L20.9475 22.5L13.16 14.6875H8.47254C5.97254 14.6875 5.03504 17.5 2.53504 18.75C0.0350365 18.75 -1.83996 15.05 3.06004 4.6125L0.0350365 1.5875ZM9.19754 2.7875H15.8725C17.535 1.25 21.0475 3.3375 21.0475 3.3375L21.5975 4.375H21.91C26.285 13.75 25.385 17.75 23.3975 18.5875L7.06004 2.25C7.84754 2.1625 8.62254 2.2625 9.19754 2.7875ZM12.535 3.75C12.2035 3.75 11.8856 3.8817 11.6512 4.11612C11.4167 4.35054 11.285 4.66848 11.285 5C11.285 5.33152 11.4167 5.64946 11.6512 5.88388C11.8856 6.1183 12.2035 6.25 12.535 6.25C12.8666 6.25 13.1845 6.1183 13.4189 5.88388C13.6533 5.64946 13.785 5.33152 13.785 5C13.785 4.66848 13.6533 4.35054 13.4189 4.11612C13.1845 3.8817 12.8666 3.75 12.535 3.75Z" fill="#BA68C8"/>
</svg>
