<svg width="16" height="16" viewBox="0 0 16 16" fill="none" xmlns="http://www.w3.org/2000/svg">
<path d="M9.41667 1.35909L9.41667 6.50096L14.514 6.50096C15.3347 6.50096 16 7.1721 16 8C16 8.8279 15.3347 9.49904 14.514 9.49904L9.41667 9.49904L9.41667 14.6409C9.3374 15.4132 8.69228 16 7.92264 16C7.153 16 6.50789 15.4132 6.42861 14.6409L6.42861 9.51516L1.34731 9.51516C0.581756 9.43519 -3.15402e-07 8.78443 -3.49339e-07 8.00806C-3.83275e-07 7.23168 0.581756 6.58093 1.3473 6.50096L6.42861 6.50096L6.42861 1.35909C6.50789 0.586846 7.153 -3.12668e-07 7.92264 -3.4631e-07C8.69228 -3.79952e-07 9.3374 0.586846 9.41667 1.35909Z" fill="#EDE9F9"/>
</svg>
