<svg width="21" height="15" viewBox="0 0 21 15" fill="none" xmlns="http://www.w3.org/2000/svg">
<path d="M17.6638 8.31583C17.2563 12.0733 14.0755 15 10.2105 15C7.96218 15 5.95051 14.005 4.57468 12.4375L5.61218 11.0767C6.68134 12.4475 8.34218 13.3333 10.2105 13.3333C13.1488 13.3333 15.5805 11.1467 15.9797 8.31583H13.5438L16.8772 3.94083L20.2105 8.31583H17.6638ZM4.44384 6.66667C4.84968 3.84417 7.27718 1.66667 10.2105 1.66667C12.0747 1.66667 13.7338 2.54917 14.8022 3.915L15.8388 2.555C14.4638 0.991667 12.4547 0 10.2105 0C6.35051 0 3.17468 2.9175 2.75968 6.66667H0.21051L3.54384 11.0417L6.87718 6.66667H4.44384Z" fill="#847E9D"/>
</svg>
