<svg width="15" height="12" viewBox="0 0 15 12" fill="none" xmlns="http://www.w3.org/2000/svg">
<path opacity="0.4" d="M7.5 0C5.94878 0 4.47805 0.538182 3.19756 1.53455C1.91707 2.52291 0.826829 3.97091 0.0439024 5.78182C-0.0146341 5.91927 -0.0146341 6.08 0.0439024 6.21091C1.60976 9.83273 4.39756 12 7.5 12H7.50732C10.6024 12 13.3902 9.83273 14.9561 6.21091C15.0146 6.08 15.0146 5.91927 14.9561 5.78182C13.3902 2.15927 10.6024 0 7.50732 0H7.5ZM7.5 3.09091C9.11707 3.09091 10.4268 4.39273 10.4268 6C10.4268 7.6 9.11707 8.90182 7.5 8.90182C5.89024 8.90182 4.58049 7.6 4.58049 6C4.58049 4.39273 5.89024 3.09091 7.5 3.09091Z" fill="#EDE9F9"/>
<path d="M5.67678 5.99766C5.67678 6.99402 6.4963 7.80856 7.49873 7.80856C8.50849 7.80856 9.328 6.99402 9.328 5.99766C9.328 5.87402 9.31337 5.75838 9.29142 5.64202H9.25483C8.44264 5.64202 7.7841 5.00202 7.75483 4.20129C7.67434 4.18747 7.58654 4.17947 7.49873 4.17947C6.4963 4.17947 5.67678 4.99402 5.67678 5.99766Z" fill="#EDE9F9"/>
</svg>
