<svg width="60" height="60" viewBox="0 0 60 60" fill="none" xmlns="http://www.w3.org/2000/svg">
<path d="M18.1464 15.8852C18.1464 15.8852 19.7602 15.2833 20.4059 15.7897C21.0521 16.2961 21.2521 17.2905 20.8526 18.0074C20.3503 18.9084 19.2088 19.174 18.2145 19.4487C14.4999 20.4754 11.1856 22.8867 9.06612 26.1052C9.49836 25.5016 10.5372 25.6386 10.9653 26.2452C11.3933 26.8517 11.2994 27.7064 10.9413 28.3567C10.5836 29.007 10.0068 29.5032 9.45763 30.0024C5.5368 33.5655 2.44283 38.0332 0.48621 42.9563C1.0368 42.7208 2.14795 40.8034 2.69854 40.5682C1.89525 42.3308 -0.467397 47.5929 0.0824661 51.1268C1.82374 46.0534 5.46219 41.1698 5.93178 40.741C6.40137 40.3121 7.22557 40.1972 7.63918 40.6805C8.05242 41.1633 7.65589 41.7547 7.27306 42.4937C11.4539 40.9765 14.7553 37.3852 17.1076 33.6108C17.4813 33.0116 17.8412 32.3723 18.4196 31.9663C18.9976 31.5606 19.8743 31.4738 20.3648 31.9823C20.9028 32.5401 20.861 33.3152 20.2971 33.8472C19.7335 34.3791 18.8195 34.9415 18.2175 35.4065C20.0783 35.1877 21.3656 33.6645 23.0414 33.0161C23.9416 32.6679 24.8564 32.3163 25.8173 32.2227C28.4721 31.9644 30.8591 33.6672 33.3366 34.655C37.5227 36.3235 42.4847 35.9004 46.3275 33.5469C50.17 31.193 52.802 26.9655 53.2184 22.4784C53.4987 19.4503 52.7651 16.3544 51.2328 13.7341C50.5684 12.598 49.6954 11.2631 48.6236 10.4655C47.6959 9.77558 46.3735 9.64243 45.2658 9.43659C39.2658 8.3217 32.9778 8.88024 27.2396 10.9419C23.9805 12.1131 20.8937 13.7733 18.1464 15.8852Z" fill="#43FF83"/>
<path d="M24.8286 13.7827C26.0334 13.8307 27.3434 13.9954 27.7845 15.0582C28.2252 16.121 27.646 16.9444 26.856 17.7808C26.0657 18.6176 24.9923 19.1168 23.9466 19.597C20.7727 21.054 16.7982 22.3059 13.6243 23.7629C13.9238 24.1134 14.5916 24.7469 15.3237 25.019C16.1855 25.3398 17.1597 25.1194 18.0779 25.1693C13.6151 28.0365 10.4957 31.7203 7.31531 35.9654C14.0577 29.9852 19.1814 25.7362 24.7012 25.328C26.6795 25.7481 24.6973 27.1385 22.7579 27.7138C26.8796 27.9399 31.068 26.2941 33.9337 23.3226C35.6787 21.5133 39.6901 15.245 37.7925 12.5855C36.1148 10.2351 27.1913 12.4859 24.8286 13.7827Z" fill="#3DDE5B"/>
<path d="M33.9591 45.8969C34.1265 43.9817 34.1544 41.5925 33.7784 38.8477C33.4737 36.6255 32.9713 34.6624 32.439 33.0205C36.6825 35.1411 40.9261 37.2614 45.1696 39.3823C43.617 39.7579 41.6513 40.3942 39.5847 41.5098C36.9394 42.9379 35.1212 44.6157 33.9591 45.8969Z" fill="#DBAA6F"/>
<path d="M33.8279 49.253L31.3537 48.0163C31.0211 47.8505 30.8861 47.4463 31.0527 47.1137L36.4535 36.3059C36.6201 35.9737 37.0238 35.8386 37.3564 36.0049L39.8305 37.2412C40.1631 37.4075 40.2978 37.8116 40.1316 38.1442L34.7305 48.9516C34.5642 49.2846 34.1604 49.4193 33.8279 49.253Z" fill="#FED197"/>
<path d="M57.223 31.3767C53.2553 39.3162 44.0403 42.7545 36.6399 39.0567C29.2404 35.3588 26.4581 25.9246 30.4257 17.9851C34.3934 10.0456 43.1731 7.48817 50.5734 11.1861C57.9729 14.8842 61.1906 23.4371 57.223 31.3767Z" fill="#0083AF"/>
<path d="M58.2054 30.8851C54.2381 38.8249 45.0228 42.2633 37.6228 38.5655C30.2229 34.8672 27.4409 25.4334 31.4082 17.4939C35.3763 9.55443 44.1559 6.99699 51.5558 10.6948C58.9558 14.3931 62.1734 22.9456 58.2054 30.8851Z" fill="#21C3F2"/>
<path d="M31.4082 17.4939C27.4409 25.4334 30.2229 34.8672 37.6228 38.5655C39.1255 39.3162 40.7031 39.7678 42.2964 39.9524C41.9755 30.0137 39.4219 19.8718 40.1122 9.75952C36.5308 10.9422 33.377 13.5548 31.4082 17.4939Z" fill="#00AAE5"/>
<path d="M49.8629 23.4197C50.8854 21.3512 50.0372 18.8451 47.9683 17.8226C45.8994 16.8003 43.3937 17.6484 42.3709 19.7172C41.3489 21.7861 42.1966 24.2919 44.2659 25.3143C46.3343 26.3367 48.8405 25.4886 49.8629 23.4197Z" fill="#02B9EE"/>
<path d="M55.5867 16.3942C55.5867 18.0338 54.2092 19.3626 52.5106 19.3626C50.8115 19.3626 49.4341 18.0338 49.4341 16.3942C49.4341 14.7549 50.8115 13.4257 52.5106 13.4257C54.2092 13.4257 55.5867 14.7549 55.5867 16.3942Z" fill="#2C254A"/>
<path d="M50.9649 13.8307C50.0502 14.3451 49.4341 15.2991 49.4341 16.3943C49.4341 18.0339 50.8115 19.3627 52.5106 19.3627C53.1879 19.3627 53.8116 19.1488 54.3199 18.7911C52.162 17.9912 50.8408 15.866 50.9649 13.8307Z" fill="#6BCEF1"/>
</svg>
