<svg width="80" height="80" viewBox="0 0 80 80" fill="none" xmlns="http://www.w3.org/2000/svg">
<path fill-rule="evenodd" clip-rule="evenodd" d="M27.7446 49.7046C27.736 50.0161 27.676 50.3247 27.5674 50.6133C27.3045 51.3134 26.753 51.902 26.0729 52.2106C25.2214 52.5964 24.1784 52.5278 23.384 52.0335C23.144 51.8849 22.9297 51.702 22.7439 51.4905C22.5782 51.3048 22.5525 51.2448 22.4182 51.0362L0.375423 12.8571C0.33256 12.7743 0.28684 12.6943 0.246835 12.6085C-0.176075 11.6741 -0.050345 10.514 0.58402 9.68817C0.752612 9.46529 0.958352 9.26812 1.18695 9.10524C1.26125 9.05095 1.34411 9.00523 1.42127 8.9538L16.2688 0.381298C16.3517 0.338435 16.4346 0.292715 16.5174 0.25271C16.6889 0.175557 16.8661 0.11555 17.0489 0.0726875C17.2918 0.0155375 17.3575 0.0212522 17.6033 0.0012497C17.6976 0.0012497 17.7919 0.00410767 17.8862 0.00410767C18.1319 0.0326827 18.1976 0.0298247 18.4377 0.0955472C18.9806 0.24128 19.4749 0.54989 19.8464 0.9728C20.0122 1.15854 20.0379 1.21854 20.1722 1.42714L39.9975 35.7657L59.8228 1.42714C59.9571 1.21854 59.9829 1.15854 60.1486 0.9728C60.6429 0.409873 61.363 0.0526852 62.1088 0.00410767C62.2974 -0.00732233 62.4832 0.00696508 62.6689 0.0241101C62.9147 0.0669726 62.9804 0.0698298 63.2147 0.14984C63.4519 0.22985 63.5033 0.266998 63.7262 0.381298L78.5738 8.9538C78.6509 9.00523 78.7338 9.05095 78.8081 9.10524C79.7168 9.75675 80.1882 10.9655 79.9282 12.077C79.8854 12.2599 79.8253 12.4371 79.7482 12.6085C79.7082 12.6943 79.6625 12.7743 79.6196 12.8571L57.7026 50.819C57.6511 50.8962 57.6054 50.979 57.5511 51.0533C56.8996 51.962 55.6909 52.4307 54.5793 52.1735C53.8507 52.002 53.1963 51.5334 52.802 50.899C52.5762 50.539 52.4391 50.1275 52.3933 49.7046H27.7446V49.7046Z" fill="#039BE5"/>
<path fill-rule="evenodd" clip-rule="evenodd" d="M39.9977 35.7658L59.823 1.42714C59.9573 1.21855 59.9831 1.15854 60.1488 0.972801C60.6431 0.409873 61.3632 0.0526852 62.109 0.00410768C62.2976 -0.00732234 62.4834 0.00696509 62.6691 0.0241101C62.9148 0.0669727 62.9806 0.0698299 63.2149 0.14984C63.4521 0.22985 63.5035 0.266998 63.7264 0.381298L78.574 8.95381C78.6511 9.00524 78.734 9.05096 78.8083 9.10526C79.717 9.75677 80.1885 10.9655 79.9284 12.0771C79.8856 12.2599 79.8255 12.4371 79.7484 12.6086C79.7084 12.6943 79.6627 12.7743 79.6198 12.8572L57.7028 50.8191C57.6513 50.8963 57.6056 50.9791 57.5513 51.0534C56.8998 51.9621 55.6911 52.4307 54.5795 52.1736C53.8509 52.0021 53.1965 51.5335 52.8022 50.8991C52.5764 50.5391 52.4392 50.1276 52.3935 49.7047H39.9977V35.7658V35.7658Z" fill="#0277BD"/>
<path d="M39.9975 77.1506C49.4665 77.1506 57.1425 69.4745 57.1425 60.0056C57.1425 50.5367 49.4665 42.8606 39.9975 42.8606C30.5286 42.8606 22.8525 50.5367 22.8525 60.0056C22.8525 69.4745 30.5286 77.1506 39.9975 77.1506Z" fill="#FBC02D"/>
<path fill-rule="evenodd" clip-rule="evenodd" d="M39.9977 42.8606C49.4589 42.8606 57.1427 50.5444 57.1427 60.0056C57.1427 69.4668 49.4589 77.1506 39.9977 77.1506V42.8606Z" fill="#F57F17"/>
<path d="M40.0289 40.0032C42.8007 40.0089 45.581 40.5947 48.1185 41.7234C52.3104 43.5893 55.8195 46.9412 57.8769 51.036C59.6857 54.6336 60.3629 58.7855 59.8114 62.766C59.357 66.0379 58.074 69.1868 56.1109 71.8529C53.6335 75.2162 50.0959 77.7793 46.0897 79.0623C41.6148 80.4911 36.637 80.2825 32.2965 78.468C28.8761 77.0392 25.8757 74.6389 23.724 71.6328C21.3323 68.2953 20.0149 64.2062 19.9949 60.1028C19.9807 56.8796 20.7522 53.6535 22.2409 50.7931C24.3241 46.7869 27.8074 43.5179 31.9336 41.6977C34.4711 40.5775 37.2485 40.0003 40.0289 40.0032V40.0032ZM39.9746 45.7182C37.2171 45.7239 34.4625 46.544 32.1565 48.0613C29.0189 50.1302 26.7387 53.4649 25.9928 57.1682C25.3871 60.1714 25.77 63.3661 27.0901 66.135C28.8075 69.7383 32.0936 72.5701 35.9398 73.7074C39.0459 74.6275 42.4549 74.4561 45.4553 73.213C48.6786 71.8786 51.376 69.324 52.8848 66.175C54.4936 62.8289 54.725 58.8484 53.4992 55.3222C52.4733 52.3704 50.4474 49.7815 47.8385 48.0613C45.6382 46.6154 43.0264 45.7953 40.3918 45.7239C40.2518 45.721 40.1118 45.7182 39.9746 45.7182V45.7182Z" fill="#FFEB3B"/>
<path d="M39.9977 40.0032H40.0291C42.8009 40.0089 45.5812 40.5947 48.1187 41.7234C52.3106 43.5893 55.8196 46.9412 57.877 51.036C59.6858 54.6336 60.3631 58.7855 59.8116 62.766C59.3572 66.0379 58.0742 69.1868 56.1111 71.8529C53.6337 75.2162 50.0961 77.7794 46.0899 79.0624C44.1239 79.691 42.0608 80.0025 39.9977 79.9996V74.2903C41.8608 74.2903 43.7267 73.9274 45.4555 73.2131C48.6788 71.8786 51.3762 69.324 52.885 66.175C54.4938 62.8289 54.7252 58.8484 53.4994 55.3222C52.4735 52.3704 50.4475 49.7815 47.8387 48.0613C45.6384 46.6154 43.0266 45.7953 40.392 45.7239C40.2606 45.721 40.1291 45.7182 39.9977 45.7182V40.0032V40.0032Z" fill="#FBC02D"/>
<path d="M37.1399 59.0171C37.0627 58.9914 36.9856 58.9657 36.9084 58.9343C36.0397 58.5742 35.3682 57.7627 35.191 56.8283C35.0225 55.9482 35.2968 54.9966 35.9111 54.3394C35.9397 54.308 35.9454 54.3023 35.9769 54.2708L37.9971 52.2506C38.5286 51.7277 39.243 51.4219 39.9831 51.4133C40.0145 51.4133 40.0459 51.4133 40.0774 51.4133C40.1202 51.4162 40.1317 51.4162 40.1745 51.4162C41.1632 51.4705 42.1033 52.0791 42.5605 52.965C42.8148 53.4622 42.9149 54.0337 42.8549 54.588V62.8633C42.8806 62.8633 42.9091 62.8633 42.9349 62.8633C43.0063 62.8662 43.0234 62.8662 43.0949 62.8748C44.1607 62.9633 45.1409 63.692 45.5238 64.7007C45.9038 65.6951 45.6752 66.8981 44.9323 67.6839C44.3979 68.2469 43.6407 68.5669 42.8549 68.5783H37.1399C36.2798 68.5669 35.4368 68.1697 34.9053 67.5011C34.2738 66.7095 34.1052 65.578 34.4995 64.6264C34.7767 63.9606 35.3139 63.4063 35.974 63.1119C36.3398 62.9491 36.7398 62.8691 37.1399 62.8633V59.0171V59.0171Z" fill="#FFEB3B"/>
<path d="M39.9977 51.4133C40.0234 51.4133 40.052 51.4133 40.0777 51.4133C40.1206 51.4162 40.132 51.4162 40.1748 51.4162C41.1635 51.4705 42.1037 52.0791 42.5609 52.965C42.8152 53.4622 42.9152 54.0337 42.8552 54.588V62.8633C42.8809 62.8633 42.9095 62.8633 42.9352 62.8633C43.0066 62.8662 43.0238 62.8662 43.0952 62.8748C44.1611 62.9633 45.1412 63.692 45.5241 64.7007C45.9041 65.6951 45.6755 66.8981 44.9326 67.6839C44.4011 68.2469 43.641 68.5669 42.8552 68.5783H39.9977V51.4133V51.4133Z" fill="#FBC02D"/>
</svg>
