<svg width="81" height="80" viewBox="0 0 81 80" fill="none" xmlns="http://www.w3.org/2000/svg">
<path d="M71.884 54.1518C70.3355 51.9014 71.2 48.6484 70.8145 45.0567C70.4179 39.1968 67.9002 33.5196 63.0162 28.9787L46.3812 13.5113C46.3812 13.5113 43.1036 10.461 40.0511 13.7408C37.0031 17.0183 40.2828 20.0686 40.2828 20.0686L47.3103 26.6058L53.4019 32.2696C53.4019 32.2696 51.8756 33.9095 45.1334 27.6397L22.3622 6.45933C22.3622 6.45933 19.0802 3.41129 16.03 6.69105C12.9819 9.96859 16.2595 13.0189 16.2595 13.0189L37.7918 33.0473C37.745 33.0027 36.1631 34.5891 36.1341 34.5624L13.0956 13.1347C13.0956 13.1347 9.8158 10.0844 6.76553 13.3642C3.71526 16.644 6.99502 19.692 6.99502 19.692L30.0358 41.1241C30.0625 41.1509 28.5786 42.8264 28.6232 42.8687L8.74854 24.3799C8.74854 24.3799 5.46877 21.3297 2.4185 24.6094C-0.631765 27.8892 2.648 30.9395 2.648 30.9395L23.7793 50.5913C23.9731 50.7718 22.6653 52.6144 22.9081 52.8395L7.68128 38.6777C7.68128 38.6777 4.40151 35.6274 1.35124 38.9094C-1.69903 42.1892 1.58074 45.2394 1.58074 45.2394L26.4174 68.3292C30.5639 72.1861 34.8218 74.1379 39.9553 74.8531C41.0003 74.9979 42.3372 74.9979 42.8853 75.067C44.6165 75.2854 46.1361 75.9003 48.1703 77.1481C50.7883 78.7523 54.7165 79.4207 56.9735 77.0077L64.6694 68.7748L71.7748 61.1726C74.0297 58.7618 73.6264 56.6807 71.884 54.1518V54.1518Z" fill="#EF9645"/>
<path d="M4.27007 77.9457C3.82899 77.9467 3.39756 77.8166 3.03054 77.5719C2.66353 77.3273 2.37748 76.9791 2.20869 76.5716C2.03991 76.164 1.99601 75.7156 2.08256 75.2831C2.16911 74.8505 2.3822 74.4535 2.69481 74.1423L10.6068 66.2348C10.8137 66.0279 11.0592 65.8638 11.3295 65.7519C11.5998 65.6399 11.8895 65.5823 12.1821 65.5823C12.4746 65.5823 12.7643 65.6399 13.0346 65.7519C13.3049 65.8638 13.5505 66.0279 13.7573 66.2348C13.9642 66.4417 14.1283 66.6872 14.2402 66.9575C14.3522 67.2278 14.4098 67.5175 14.4098 67.8101C14.4098 68.1026 14.3522 68.3923 14.2402 68.6626C14.1283 68.9329 13.9642 69.1785 13.7573 69.3853L5.84534 77.2951C5.6386 77.502 5.393 77.666 5.12266 77.7776C4.85231 77.8893 4.56257 77.9464 4.27007 77.9457V77.9457ZM19.3008 80C18.9449 80.0005 18.594 79.9156 18.2776 79.7525C17.9612 79.5894 17.6886 79.3527 17.4825 79.0625C17.2765 78.7722 17.1431 78.4367 17.0935 78.0842C17.0439 77.7317 17.0796 77.3725 17.1975 77.0366L19.361 70.8581C19.4509 70.5737 19.5971 70.3103 19.7907 70.0835C19.9843 69.8566 20.2215 69.671 20.4882 69.5375C20.7549 69.404 21.0457 69.3254 21.3434 69.3064C21.641 69.2874 21.9395 69.3284 22.221 69.4268C22.5025 69.5253 22.7614 69.6793 22.9823 69.8797C23.2032 70.08 23.3817 70.3227 23.507 70.5933C23.6324 70.864 23.7022 71.157 23.7122 71.4551C23.7222 71.7532 23.6723 72.0502 23.5654 72.3286L21.4019 78.5072C21.2496 78.943 20.9656 79.3208 20.5892 79.5882C20.2128 79.8557 19.7626 79.9995 19.3008 80V80ZM2.21799 62.9171C1.69393 62.9142 1.18762 62.7269 0.7879 62.3879C0.388181 62.049 0.120583 61.5801 0.0320555 61.0636C-0.056472 60.5471 0.0397257 60.0158 0.303771 59.5631C0.567816 59.1104 0.982843 58.7652 1.47604 58.5879L7.03515 56.625C7.31107 56.5276 7.60348 56.4854 7.89568 56.501C8.18789 56.5166 8.47416 56.5895 8.73816 56.7157C9.00217 56.842 9.23872 57.0189 9.43433 57.2366C9.62994 57.4542 9.78077 57.7082 9.8782 57.9841C9.97564 58.26 10.0178 58.5525 10.0022 58.8447C9.98663 59.1369 9.91366 59.4231 9.78745 59.6871C9.66124 59.9511 9.48427 60.1877 9.26664 60.3833C9.04901 60.5789 8.79498 60.7298 8.51906 60.8272L2.95995 62.7901C2.72161 62.8742 2.47072 62.9172 2.21799 62.9171V62.9171ZM67.8578 14.4181C67.4168 14.4184 66.9855 14.2879 66.6187 14.0429C66.2519 13.798 65.9661 13.4497 65.7974 13.0421C65.6287 12.6346 65.5848 12.1862 65.6711 11.7537C65.7575 11.3211 65.9703 10.924 66.2826 10.6125L74.1968 2.70273C74.6149 2.28494 75.1818 2.05035 75.7728 2.05056C76.3639 2.05077 76.9307 2.28576 77.3484 2.70384C77.7662 3.12192 78.0008 3.68885 78.0006 4.2799C78.0004 4.87095 77.7654 5.4377 77.3473 5.85549L69.4331 13.7652C69.2268 13.9729 68.9813 14.1375 68.7109 14.2495C68.4405 14.3616 68.1505 14.4189 67.8578 14.4181V14.4181ZM58.58 10.637C58.224 10.6371 57.8731 10.5519 57.5567 10.3885C57.2404 10.2251 56.9678 9.9883 56.7618 9.69787C56.5558 9.40744 56.4224 9.07188 56.3728 8.7193C56.3232 8.36672 56.3588 8.00738 56.4767 7.67139L58.638 1.49287C58.833 0.935032 59.2416 0.477508 59.7739 0.220949C60.3063 -0.0356113 60.9187 -0.0701916 61.4766 0.124815C62.0344 0.319822 62.4919 0.728441 62.7485 1.26078C63.005 1.79312 63.0396 2.40558 62.8446 2.96342L60.6834 9.14194C60.5312 9.57858 60.247 9.95707 59.8702 10.225C59.4933 10.4928 59.0424 10.6368 58.58 10.637V10.637ZM72.2673 23.502C71.7432 23.4991 71.2369 23.3118 70.8372 22.9729C70.4374 22.6339 70.1698 22.165 70.0813 21.6485C69.9928 21.132 70.089 20.6007 70.353 20.148C70.6171 19.6953 71.0321 19.3501 71.5253 19.1728L77.0822 17.2099C77.6394 17.0131 78.252 17.0458 78.7852 17.3006C79.3184 17.5555 79.7285 18.0118 79.9252 18.569C80.122 19.1263 80.0894 19.7389 79.8345 20.272C79.5796 20.8052 79.1233 21.2153 78.5661 21.4121L73.0092 23.375C72.7709 23.4591 72.52 23.5021 72.2673 23.502V23.502Z" fill="#FA743E"/>
<path d="M78.7643 52.982C77.2915 50.6826 78.2652 47.4586 78.0023 43.8557C77.8018 37.9869 75.4778 32.2273 70.7498 27.5238L54.6451 11.5059C54.6451 11.5059 51.4723 8.34872 48.3106 11.5238C45.1534 14.6966 48.3284 17.856 48.3284 17.856L55.1331 24.6272L61.0286 30.4916C61.0286 30.4916 59.4467 32.078 52.9206 25.5853C46.39 19.0904 30.8757 3.64965 30.8757 3.64965C30.8757 3.64965 27.7007 0.492432 24.5412 3.66748C21.3818 6.84029 24.5568 9.99751 24.5568 9.99751L45.4029 30.7411C45.3584 30.6966 43.723 32.2273 43.694 32.1983L21.3907 10.0064C21.3907 10.0064 18.2157 6.84698 15.0562 10.022C11.899 13.1971 15.0718 16.3543 15.0718 16.3543L37.3773 38.5506C37.4041 38.5774 35.8622 40.2016 35.9068 40.2462L16.6671 21.1001C16.6671 21.1001 13.4921 17.9429 10.3326 21.118C7.17319 24.293 10.3482 27.4525 10.3482 27.4525L30.8044 47.8062C30.9916 47.9911 29.6235 49.7914 29.8575 50.0253L15.1164 35.3578C15.1164 35.3578 11.9413 32.2005 8.78188 35.3756C5.62243 38.5506 8.79748 41.7101 8.79748 41.7101L32.8387 65.622C36.8537 69.617 41.0426 71.7092 46.1494 72.5982C47.1899 72.7787 48.5267 72.8233 49.0704 72.9102C50.7927 73.1864 52.29 73.8526 54.2842 75.1695C56.8465 76.8606 60.7501 77.6605 63.0874 75.3254L71.0573 67.3577L78.4145 60.0005C80.7518 57.661 80.4198 55.5666 78.7643 52.982V52.982Z" fill="#FFDB5E"/>
</svg>
