<svg width="93" height="80" viewBox="0 0 93 80" fill="none" xmlns="http://www.w3.org/2000/svg">
<path d="M76.0802 32.8C76.0802 29.424 78.5922 25.696 77.6802 22.656C76.7682 19.616 72.3202 17.984 70.4002 15.36C68.4802 12.736 68.3202 8.192 65.6002 6.256C62.8802 4.32 58.6402 5.584 55.4882 4.576C52.3362 3.568 49.7762 0 46.4002 0C43.0242 0 40.2722 3.584 37.2322 4.576C34.1922 5.568 29.7442 4.352 27.2002 6.256C24.6562 8.16 24.4002 12.656 22.4002 15.36C20.4002 18.064 16.2402 19.504 15.2162 22.656C14.1922 25.808 16.7362 29.424 16.7362 32.8C16.7362 36.176 14.2242 39.904 15.2162 42.944C16.2082 45.984 20.4802 47.616 22.4002 50.24C24.3202 52.864 24.4802 57.408 27.2002 59.344C29.9202 61.28 34.1602 60.016 37.3122 60.944C40.4642 61.872 43.0242 65.6 46.4002 65.6C49.7762 65.6 52.5282 62.016 55.5682 61.024C58.6082 60.032 63.0562 61.248 65.6802 59.424C68.3042 57.6 68.4802 53.024 70.4802 50.32C72.4802 47.616 76.6402 46.176 77.6642 43.024C78.6882 39.872 76.0802 36.176 76.0802 32.8Z" fill="#FCCD1D"/>
<path d="M46.4 56.0001C59.213 56.0001 69.6 45.6131 69.6 32.8001C69.6 19.9871 59.213 9.6001 46.4 9.6001C33.5869 9.6001 23.2 19.9871 23.2 32.8001C23.2 45.6131 33.5869 56.0001 46.4 56.0001Z" fill="#F9A215"/>
<path d="M48.592 20.8002L51.024 25.0082C51.2005 25.3226 51.4438 25.5945 51.7369 25.8046C52.0299 26.0147 52.3655 26.158 52.72 26.2242L57.6 27.2002C58.0364 27.2757 58.4443 27.4681 58.78 27.7571C59.1157 28.046 59.3667 28.4207 59.5063 28.841C59.6459 29.2614 59.6688 29.7118 59.5726 30.1442C59.4763 30.5765 59.2646 30.9747 58.96 31.2962L55.6 34.8482C55.3555 35.1059 55.1712 35.4147 55.0606 35.7523C54.9499 36.0898 54.9155 36.4478 54.96 36.8002L55.536 41.6002C55.5795 42.0405 55.5059 42.4845 55.3227 42.8873C55.1395 43.29 54.8532 43.6372 54.4927 43.8938C54.1322 44.1503 53.7104 44.3071 53.2699 44.3483C52.8293 44.3895 52.3857 44.3135 51.984 44.1282L47.488 42.0962C47.1562 41.946 46.7962 41.8683 46.432 41.8683C46.0678 41.8683 45.7077 41.946 45.376 42.0962L40.88 44.1282C40.4769 44.3214 40.0296 44.4036 39.5842 44.3662C39.1389 44.3288 38.7115 44.1733 38.3463 43.9157C37.981 43.6581 37.6912 43.3077 37.5065 42.9007C37.3219 42.4936 37.2492 42.0447 37.296 41.6002L37.872 36.8002C37.9164 36.4478 37.882 36.0898 37.7714 35.7523C37.6607 35.4147 37.4765 35.1059 37.232 34.8482L33.872 31.2962C33.5677 30.9768 33.3553 30.5811 33.2574 30.151C33.1594 29.7208 33.1796 29.2722 33.3156 28.8526C33.4517 28.4329 33.6986 28.0578 34.0303 27.767C34.362 27.4761 34.7661 27.2803 35.2 27.2002L40 26.2562C40.3544 26.19 40.69 26.0467 40.9831 25.8366C41.2761 25.6265 41.5195 25.3546 41.696 25.0402L44.208 20.8002C44.4327 20.4187 44.7531 20.1024 45.1376 19.8827C45.522 19.6629 45.9572 19.5474 46.4 19.5474C46.8428 19.5474 47.2779 19.6629 47.6624 19.8827C48.0468 20.1024 48.3672 20.4187 48.592 20.8002V20.8002Z" fill="#FCCD1D"/>
<path d="M67.2 57.6001V80.0001H92.7999L83.1999 68.8001L92.7999 57.6001H67.2Z" fill="#212529"/>
<path d="M25.6 57.6001V80.0001H0L9.6 68.8001L0 57.6001H25.6Z" fill="#212529"/>
<path d="M76.8 51.2004H16V73.6004H76.8V51.2004Z" fill="#F65164"/>
<path d="M16 73.6001L25.6 80.0001V73.6001H16Z" fill="#A60416"/>
<path d="M76.8 73.6001L67.2 80.0001V73.6001H76.8Z" fill="#A60416"/>
</svg>
