<svg width="80" height="80" viewBox="0 0 80 80" fill="none" xmlns="http://www.w3.org/2000/svg">
<path d="M36.7678 0H16.8955V22.8292H36.7678V0Z" fill="#FFDA44"/>
<path d="M30.2238 59.7092L20.7499 52.8858L0 75.3068V80.0001H39.9983V52.6676L30.2238 59.7092Z" fill="#6E76E5"/>
<path d="M59.248 52.8858L49.7757 59.7092L39.9979 52.6676V80.0001H79.9995V75.3068L59.248 52.8858Z" fill="#515BE0"/>
<path d="M59.248 52.886L43.2291 35.5787L59.248 52.886Z" fill="#99E9EC"/>
<path d="M39.9998 52.6678V35.5787H36.7691L20.7513 52.886L30.2253 59.7094L39.9998 52.6678Z" fill="#99E9EC"/>
<path d="M39.9979 52.6676L49.7757 59.7092L59.248 52.8858L49.7757 59.7092L39.9979 52.6676Z" fill="#99E9EC"/>
<path d="M39.9979 35.5787V52.6678L49.7757 59.7094L59.248 52.886L43.2291 35.5787H39.9979Z" fill="#66DDE2"/>
<path d="M43.2293 35.5783C43.2321 35.5783 43.2321 0 43.2321 0H36.7675V35.5783H43.2293Z" fill="#957856"/>
</svg>
