<svg width="81" height="80" viewBox="0 0 81 80" fill="none" xmlns="http://www.w3.org/2000/svg">
<path d="M53.2501 10.8817C40.5958 -1.77263 19.3224 -4.0795 7.62211 7.62307C-4.07814 19.3233 -1.77358 40.5968 10.8808 53.2511C19.0712 61.4415 28.8218 63.2137 37.8603 60.2985L37.8257 60.3284L38.1253 60.2086C38.7337 60.0058 39.3398 59.7961 39.9413 59.5541C42.1604 58.7944 44.4248 58.174 46.7213 57.6966C50.9801 56.8209 54.8818 61.3977 58.1404 64.6587C61.3991 67.9173 67.9163 77.6956 69.5457 79.3249C71.175 80.9543 72.8043 79.3249 74.436 77.6956L76.0653 76.0663L77.6946 74.437C79.3239 72.8053 80.9532 71.176 79.3239 69.5467C77.6946 67.9173 67.9163 61.4 64.6577 58.1414C61.399 54.8827 56.8222 50.9811 57.6956 46.7223C58.0963 44.7913 58.5986 42.8827 59.2005 41.0047C63.7497 31.2748 62.7426 20.3742 53.2501 10.8817V10.8817Z" fill="#F65164"/>
<path d="M35.8691 60.854C36.5352 60.6927 37.2012 60.5106 37.8603 60.2986L37.8257 60.3286L38.1253 60.2087C38.7337 60.0059 39.3398 59.7962 39.9413 59.5542C42.1604 58.7946 44.4249 58.1742 46.7213 57.6968C50.9802 56.821 54.8818 61.3979 58.1405 64.6588C61.3991 67.9175 67.9164 77.6957 69.5457 79.3251C71.1751 80.9544 72.8044 79.3251 74.436 77.6957L76.0654 76.0664L77.6947 74.4371C79.324 72.8055 80.9533 71.1761 79.324 69.5468C77.6947 67.9175 67.9164 61.4002 64.6578 58.1415C61.3991 54.8829 56.8222 50.9813 57.6957 46.7224C58.0964 44.7914 58.5987 42.8829 59.2006 41.0048C60.0233 39.2441 60.6593 37.4489 61.0995 35.626L35.8691 60.854Z" fill="#D99E82"/>
<path d="M46.7307 49.9923L49.9894 46.7336L77.6948 74.4368L74.4362 77.6955L46.7307 49.9923Z" fill="#FFCC4D"/>
<path d="M72.5945 20.1665C77.0493 20.1665 80.6605 16.5552 80.6605 12.1005C80.6605 7.64581 77.0493 4.03455 72.5945 4.03455C68.1398 4.03455 64.5286 7.64581 64.5286 12.1005C64.5286 16.5552 68.1398 20.1665 72.5945 20.1665Z" fill="#CCD6DD"/>
</svg>
