<svg width="81" height="81" viewBox="0 0 81 81" fill="none" xmlns="http://www.w3.org/2000/svg">
<path d="M32.5079 48.9006L32.6149 49.1807C32.6482 49.2711 32.6986 49.3923 32.7417 49.5197L32.8973 49.9676C32.9582 50.1389 33.0077 50.312 33.0726 50.5124C33.1344 50.7102 33.2077 50.9315 33.2651 51.1491L33.4654 51.8655C33.5314 52.1151 33.5868 52.3658 33.6537 52.6388C33.94 53.8179 34.1433 55.0156 34.2623 56.223C34.3306 56.8657 34.3596 57.5062 34.3738 58.1648C34.3748 58.8103 34.3593 59.4723 34.2988 60.1189C34.2396 60.762 34.1419 61.4009 34.0064 62.0324C33.8705 62.6521 33.691 63.2614 33.4694 63.8559C33.0276 65.0344 32.4079 66.1234 31.6029 67.0861C31.2047 67.5718 30.7393 68.005 30.2783 68.4535C29.8106 68.8955 29.3321 69.3376 28.8326 69.7661C27.8226 70.6427 26.7672 71.4656 25.671 72.2316C24.564 73.0101 23.3996 73.7313 22.2052 74.3929C21.6069 74.7211 21.0006 75.0345 20.3868 75.3328C19.7751 75.6266 19.1562 75.9053 18.5308 76.1689C17.2834 76.6892 16.0265 77.141 14.7804 77.5151C13.5774 77.8785 12.3572 78.1824 11.1242 78.4255C8.76629 78.8957 6.60208 79.0885 4.99347 79.1297L4.41832 79.1396L3.90183 79.1391L3.06563 79.1169L2.52958 79.0855L2.34016 79.0691L2.32382 78.8797L2.29241 78.3437L2.27013 77.5075L2.26965 76.991L2.27959 76.4158C2.32077 74.8072 2.5134 72.643 2.98374 70.285C3.22697 69.0521 3.53075 67.8319 3.89397 66.6289C4.26816 65.3828 4.71991 64.1257 5.24025 62.8785C5.50382 62.2531 5.78258 61.6342 6.07629 61.0224C6.37436 60.4109 6.68685 59.8028 7.01617 59.2041C7.67786 58.0097 8.39899 56.8453 9.1775 55.7383C9.94345 54.642 10.7664 53.5867 11.643 52.5767C12.0715 52.0771 12.5135 51.5985 12.9556 51.131C13.4042 50.67 13.8373 50.2046 14.323 49.8064C15.2858 49.0014 16.3748 48.3817 17.5533 47.9399C18.1477 47.7183 18.7571 47.5389 19.3768 47.4029C20.0082 47.2674 20.6471 47.1697 21.2902 47.1104C21.9368 47.05 22.599 47.0345 23.2443 47.0354C23.9029 47.0495 24.5433 47.0787 25.1861 47.147C26.3936 47.2659 27.5912 47.4692 28.7703 47.7556C29.0432 47.8223 29.2938 47.8779 29.5437 47.9439L30.26 48.1442C30.4776 48.2018 30.6991 48.2748 30.8967 48.3367C31.0973 48.4014 31.2702 48.4511 31.4415 48.512L31.8894 48.6676C32.0168 48.7107 32.138 48.761 32.2284 48.7944C32.4125 48.8641 32.5079 48.9006 32.5079 48.9006V48.9006Z" fill="#FFB636"/>
<path d="M11.9965 28.389L0.375974 40.0096C-0.427211 40.8128 0.141685 42.1861 1.27755 42.1861H11.0441C11.3823 42.1861 11.7066 42.3204 11.9457 42.5595L18.2872 48.901L28.5868 28.0156H12.8981C12.7307 28.0156 12.5649 28.0485 12.4102 28.1126C12.2555 28.1767 12.1149 28.2706 11.9965 28.389Z" fill="#FF473E"/>
<path d="M34.3199 62.1761L40.6615 68.5176C40.9005 68.7567 41.0348 69.081 41.0348 69.4191V79.1857C41.0348 80.3216 42.4082 80.8905 43.2114 80.0873L54.8319 68.4668C55.071 68.2276 55.2053 67.9033 55.2053 67.5652V51.8765L34.3199 62.1761V62.1761Z" fill="#FF473E"/>
<path d="M80.7104 2.12721L80.7228 2.22929C80.7303 2.29644 80.7451 2.39996 80.7556 2.52768C80.7766 2.78297 80.8242 3.17847 80.8468 3.65474C80.9193 4.63452 80.968 6.01382 80.9338 7.67323C80.9007 9.33361 80.7837 11.2731 80.5302 13.3785C80.4734 13.9115 80.3925 14.4393 80.3143 14.9876C80.2417 15.5416 80.1383 16.0828 80.044 16.6499C79.8501 17.7792 79.6081 18.9284 79.3287 20.1007C78.7468 22.5335 78.0078 24.9261 77.1165 27.2635C76.1969 29.6706 75.0934 32.075 73.8 34.4107C72.5047 36.7445 71.0312 39.0209 69.3843 41.1846C67.7396 43.3504 65.9238 45.4056 63.9756 47.3284C62.0274 49.2512 59.9494 51.0441 57.7661 52.6713C57.2201 53.0779 56.671 53.4777 56.1094 53.8602C55.554 54.249 54.9865 54.6208 54.421 54.9891C53.2845 55.7201 52.124 56.4043 50.9514 57.0462C48.643 58.3091 46.2514 59.4134 43.7931 60.3516C41.4571 61.2409 39.0677 61.9826 36.6388 62.5724C35.4691 62.8543 34.326 63.1023 33.1986 63.298L32.3687 63.4475C32.0937 63.4946 31.8147 63.5334 31.5438 63.5759L30.7402 63.6985L29.9431 63.7999C27.8491 64.0648 25.9223 64.1946 24.2741 64.24C22.6277 64.2871 21.2563 64.2464 20.2877 64.185C19.8162 64.1672 19.4233 64.122 19.1711 64.1042C19.0446 64.0949 18.9419 64.081 18.8756 64.0743L18.7744 64.063C18.0081 63.9776 17.4269 63.3693 17.3452 62.6337L17.3339 62.5328C17.3272 62.4664 17.3133 62.3637 17.304 62.2373C17.2862 61.985 17.241 61.5923 17.2232 61.1206C17.162 60.1521 17.1213 58.7808 17.1682 57.1342C17.2136 55.486 17.3434 53.5593 17.6083 51.4653L17.7097 50.6682L17.8323 49.8645C17.8748 49.5937 17.9137 49.3148 17.9607 49.0397L18.1102 48.2097C18.3059 47.0824 18.5539 45.9393 18.8358 44.7696C19.4254 42.3406 20.1671 39.9512 21.0566 37.6153C21.9949 35.157 23.0992 32.7654 24.362 30.457C25.0041 29.2846 25.6882 28.1239 26.4191 26.9873C26.7874 26.4218 27.1592 25.8544 27.5479 25.2989C27.9305 24.7372 28.3303 24.1882 28.7369 23.6422C30.3641 21.459 32.157 19.3808 34.0798 17.4328C36.0026 15.4846 38.0578 13.6688 40.2236 12.0241C42.3873 10.3773 44.6637 8.90365 46.9975 7.60833C49.3332 6.31493 51.7377 5.21143 54.1447 4.2919C56.482 3.40053 58.8747 2.66155 61.3076 2.07962C62.4798 1.8003 63.629 1.55832 64.7583 1.36441C65.3254 1.27002 65.8666 1.16666 66.4206 1.09407C66.969 1.01586 67.4965 0.934774 68.0297 0.878205C70.1351 0.624686 72.0746 0.507701 73.735 0.474529C75.3944 0.440395 76.7737 0.488952 77.7535 0.561546C78.2297 0.584142 78.6252 0.631897 78.8805 0.65273C79.0082 0.663306 79.1118 0.677889 79.1789 0.685581L79.281 0.697921C80.0452 0.790066 80.6223 1.39566 80.7104 2.12721V2.12721Z" fill="#ADBBBC"/>
<path d="M38.6376 42.7711L38.731 43.0238C38.7831 43.181 38.8533 43.4071 38.9017 43.659C39.0164 44.1806 39.0544 44.8156 38.847 45.3678C38.7448 45.6454 38.5557 45.8768 38.3777 46.1566L37.7858 47.0468L36.3652 49.18C35.801 50.0159 35.232 50.8486 34.6582 51.6779C34.0187 52.6006 33.3715 53.5179 32.7167 54.4298L31.6735 55.8655L30.5895 57.3214C29.8541 58.295 29.1016 59.2788 28.3364 60.2498C27.5786 61.2173 26.8113 62.1773 26.0345 63.1295C25.2684 64.0726 24.5171 65.0032 23.7777 65.8915L22.6929 67.2043C22.3337 67.6283 22.0069 68.0679 21.6274 68.4345C21.2503 68.8034 20.8153 69.0941 20.3153 69.2961C19.8196 69.5023 19.277 69.6379 18.7523 69.7645C17.7633 69.9989 16.7635 70.1851 15.7564 70.3225C15.291 70.3861 14.846 70.4361 14.4257 70.4738C14.0076 70.5135 13.6031 70.5294 13.2486 70.5548C12.8914 70.5774 12.5504 70.5755 12.2655 70.5856C11.9762 70.5914 11.7158 70.5819 11.512 70.5816C11.3038 70.577 11.1375 70.5665 11.0286 70.5629L10.8578 70.5513L10.8463 70.3805C10.8426 70.2717 10.8322 70.1052 10.8275 69.8972C10.8272 69.6933 10.8177 69.4331 10.8235 69.1437C10.8335 68.8586 10.8317 68.5177 10.8543 68.1605C10.8796 67.806 10.8956 67.4016 10.9354 66.9835C10.9729 66.5633 11.0229 66.1181 11.0867 65.6527C11.224 64.6456 11.4102 63.6458 11.6447 62.6568C11.7712 62.1323 11.9068 61.5897 12.1131 61.0939C12.315 60.5937 12.6057 60.1588 12.9746 59.7817C13.3412 59.4024 13.7808 59.0756 14.205 58.7163L15.5178 57.6316C16.4061 56.8922 17.3367 56.1408 18.2797 55.3748C19.2212 54.6072 20.1856 53.8352 21.1595 53.0729C22.1305 52.3075 23.1142 51.5551 24.0879 50.8197L25.5438 49.7358L26.9795 48.6926C27.8915 48.0378 28.8088 47.3907 29.7314 46.7511C30.6128 46.1404 31.4523 45.5692 32.2292 45.0441L34.3625 43.6235L35.2527 43.0316C35.5324 42.8536 35.7638 42.6645 36.0415 42.5623C36.5937 42.3549 37.2286 42.3929 37.7503 42.5076C38.0022 42.556 38.2283 42.6262 38.3855 42.6783L38.6376 42.7711V42.7711Z" fill="#FF473E"/>
<path d="M57.709 32.38C57.709 37.1743 53.8224 41.0609 49.0282 41.0609C44.2339 41.0609 40.3473 37.1743 40.3473 32.38C40.3473 27.5858 44.2339 23.6992 49.0282 23.6992C53.8224 23.6992 57.709 27.5858 57.709 32.38V32.38ZM62.0726 13.8098C59.0207 13.8098 56.5467 16.2838 56.5467 19.3356C56.5467 22.3875 59.0207 24.8615 62.0726 24.8615C65.1244 24.8615 67.5984 22.3875 67.5984 19.3356C67.5984 16.2838 65.1244 13.8098 62.0726 13.8098Z" fill="#2B3B47"/>
</svg>
