<svg width="70" height="80" viewBox="0 0 70 80" fill="none" xmlns="http://www.w3.org/2000/svg">
<path d="M34.8925 67.2766C42.112 67.2766 47.9644 61.4241 47.9644 54.2047C47.9644 46.9853 42.112 41.1328 34.8925 41.1328C27.6731 41.1328 21.8206 46.9853 21.8206 54.2047C21.8206 61.4241 27.6731 67.2766 34.8925 67.2766Z" fill="#FFCD00"/>
<path d="M38.2048 41.5685H31.5816C29.3194 41.5685 27.4858 39.7348 27.4858 37.4727V28.2352C27.4858 25.973 29.3196 24.1394 31.5816 24.1394H38.2048C40.467 24.1394 42.3006 25.9732 42.3006 28.2352V37.4727C42.3007 39.7348 40.467 41.5685 38.2048 41.5685Z" fill="#FFCD00"/>
<path d="M37.4695 57.716C36.7181 58.2695 35.8274 58.562 34.8934 58.562C33.9307 58.562 33.1504 59.3424 33.1504 60.3049C33.1504 61.2674 33.9307 62.0479 34.8934 62.0479C36.5765 62.0479 38.1823 61.5207 39.5368 60.5229C40.3118 59.9521 40.4773 58.861 39.9065 58.086C39.3356 57.3107 38.2446 57.1454 37.4695 57.716Z" fill="#40386B"/>
<path d="M40.9936 52.4622C40.0309 52.4622 39.2506 53.2426 39.2506 54.2051L39.2504 54.2483C39.2389 55.2108 40.0098 56.0004 40.9723 56.0119C40.9795 56.012 40.9865 56.012 40.9937 56.012C41.9464 56.012 42.7247 55.2454 42.7361 54.29L42.7364 54.2051C42.7364 53.2426 41.9561 52.4622 40.9936 52.4622Z" fill="#40386B"/>
<path d="M69.0232 37.3174C68.8763 36.5547 68.2425 35.9813 67.4689 35.9114L44.0437 33.7892V31.7211H63.4336C64.2617 31.7211 64.9753 31.1384 65.1411 30.3272C65.2992 29.5538 68.9107 11.261 60.1141 0.631797C59.5002 -0.109768 58.4013 -0.213362 57.66 0.40039C56.9184 1.01414 56.8147 2.11274 57.4284 2.85446C63.868 10.6357 62.5833 23.9237 61.9563 28.2355H44.0436C44.0436 27.7097 43.9725 27.2003 43.8415 26.7153L55.2226 23.96C55.9775 23.7773 56.5203 23.1172 56.5539 22.3414C56.5766 21.8144 57.0337 9.35151 50.2836 2.44258C49.6108 1.75383 48.5073 1.74164 47.8189 2.41399C47.1303 3.08665 47.1175 4.19009 47.7901 4.87868C52.3353 9.53089 52.9917 17.7303 53.0697 20.895L41.7837 23.6275C41.2165 23.1861 40.5665 22.8469 39.8606 22.6376V20.3922C39.8606 19.4297 39.0803 18.6492 38.1176 18.6492C37.1549 18.6492 36.3746 19.4297 36.3746 20.3922V22.3965H33.4116V20.3922C33.4116 19.4297 32.6313 18.6492 31.6687 18.6492C30.706 18.6492 29.9257 19.4297 29.9257 20.3922V22.637C29.2196 22.8462 28.5696 23.1855 28.0023 23.627L16.7138 20.8942C16.7875 17.7318 17.4355 9.54526 21.9952 4.87822C22.6679 4.18978 22.655 3.08634 21.9665 2.41352C21.278 1.74039 20.1744 1.75368 19.5018 2.44211C12.7516 9.35104 13.2088 21.8139 13.2314 22.3409C13.2649 23.1167 13.8078 23.7769 14.5627 23.9595L25.9447 26.7153C25.8138 27.2002 25.7429 27.7095 25.7429 28.2353H7.82766C7.19672 23.9266 5.90328 10.6523 12.357 2.8543C12.9708 2.11274 12.8671 1.01399 12.1255 0.400234C11.3842 -0.213518 10.2855 -0.109768 9.67157 0.631641C0.874671 11.261 4.4864 29.5534 4.64453 30.327C4.81031 31.1383 5.52406 31.721 6.35203 31.721H25.743V33.7889L2.31671 35.9113C1.54327 35.9811 0.909515 36.5546 0.762483 37.3172C0.723577 37.5189 -0.187207 42.3336 0.0348246 48.7529C0.332013 57.342 2.55749 64.7062 6.47078 70.0492C6.81219 70.5153 7.34172 70.7623 7.87829 70.7623C8.23563 70.7623 8.59641 70.6526 8.90657 70.4253C9.68329 69.8565 9.85157 68.7659 9.28282 67.9892C2.0978 58.179 3.39437 43.6279 3.98702 39.2594L25.7429 37.2885V37.4725C25.7429 38.6043 26.0676 39.661 26.6271 40.5564L14.4399 41.7804C13.7028 41.8544 13.0928 42.3866 12.9196 43.1066C12.7877 43.6549 9.82454 56.7888 21.7355 79.0781C22.0494 79.6656 22.6516 80 23.2743 80C23.5515 80 23.8327 79.9336 24.0943 79.7937C24.9432 79.34 25.2637 78.2842 24.8099 77.4353C18.9425 66.4562 16.9452 57.9188 16.3027 52.6902C15.8583 49.0733 15.9836 46.501 16.1322 45.1138L23.8535 44.3383C21.5072 46.9594 20.0783 50.4176 20.0783 54.2043C20.0783 62.3732 26.7243 69.019 34.8931 69.019C43.0618 69.019 49.7078 62.3731 49.7078 54.2043C49.7078 50.4412 48.2961 47.003 45.9757 44.388L53.6573 45.121C54.0439 48.6855 54.2595 60.0621 44.9753 77.4352C44.5215 78.2841 44.8421 79.3402 45.6909 79.7936C45.9525 79.9336 46.2337 79.9998 46.5109 79.9998C47.1334 79.9998 47.7356 79.6653 48.0497 79.078C59.9608 56.7887 56.9977 43.6547 56.8656 43.1065C56.6916 42.3832 56.0773 41.8502 55.3367 41.7794L43.1221 40.6139C43.7042 39.7061 44.0432 38.6285 44.0432 37.4724V37.2888L65.7994 39.2597C66.3958 43.6243 67.7025 58.1577 60.502 67.9893C59.9333 68.7659 60.1019 69.8567 60.8783 70.4254C61.1888 70.6529 61.5494 70.7625 61.9066 70.7625C62.4433 70.7623 62.9727 70.5153 63.3141 70.0493C67.2272 64.7062 69.4528 57.3421 69.75 48.753C69.9728 42.334 69.0619 37.5191 69.0232 37.3174ZM38.2048 25.8823C39.5023 25.8823 40.5578 26.9378 40.5578 28.2353V37.4728C40.5578 38.7703 39.5023 39.8258 38.2048 39.8258H31.5816C30.2841 39.8258 29.2287 38.7703 29.2287 37.4728V28.2353C29.2287 26.9378 30.2841 25.8823 31.5816 25.8823H38.2048ZM34.8932 65.5337C28.6465 65.5337 23.5643 60.4515 23.5643 54.2048C23.5643 49.0343 27.0476 44.6647 31.7896 43.3116H37.9968C42.739 44.6647 46.2222 49.0343 46.2222 54.2048C46.2223 60.4515 41.1403 65.5337 34.8932 65.5337Z" fill="#40386B"/>
</svg>
