<svg width="78" height="80" viewBox="0 0 78 80" fill="none" xmlns="http://www.w3.org/2000/svg">
<path d="M38.2083 37.7021V19.7198C38.2083 8.84755 47.0538 0 57.9262 0C68.8005 0 77.646 8.84755 77.646 19.7198V37.7021H70.4642V19.7198C70.4642 12.8074 64.8404 7.18176 57.9262 7.18176C51.0138 7.18176 45.39 12.8074 45.39 19.7198V37.7021H38.2083Z" fill="#CFDCE5"/>
<path d="M48.2676 37.5104H3.04892C1.36485 37.5104 0 38.8755 0 40.5593V76.9509C0 78.635 1.36516 79.9999 3.04892 79.9999H48.2676C49.9517 79.9999 51.3166 78.6347 51.3166 76.9509V40.5596C51.3166 38.8755 49.9514 37.5104 48.2676 37.5104Z" fill="#F65164"/>
<path d="M31.9648 70.8646L28.2362 59.9091C30.7594 58.8884 32.5401 56.4169 32.5401 53.5281C32.5401 49.7271 29.4589 46.6459 25.6581 46.6459C21.8573 46.6459 18.776 49.7271 18.776 53.5281C18.776 56.4169 20.5568 58.8884 23.0799 59.9091L19.3515 70.8646H31.9648Z" fill="#314A5F"/>
</svg>
