<svg width="500" height="500" viewBox="0 0 500 500" fill="none" xmlns="http://www.w3.org/2000/svg">
<path d="M410.25 249.13C320.62 197.6 175.3 197.6 85.6699 249.13C-3.96008 300.66 -3.95008 384.22 85.6699 435.75C175.29 487.28 320.61 487.29 410.24 435.75C499.87 384.21 499.87 300.67 410.25 249.13Z" fill="#F5F5F5"/>
<path d="M139.25 349.29C174.293 349.29 202.7 332.886 202.7 312.65C202.7 292.414 174.293 276.01 139.25 276.01C104.208 276.01 75.8 292.414 75.8 312.65C75.8 332.886 104.208 349.29 139.25 349.29Z" fill="#E0E0E0"/>
<path d="M247.29 409L241.39 405.59L245.68 403.12C246.452 402.747 247.102 402.164 247.558 401.438C248.013 400.712 248.254 399.872 248.254 399.015C248.254 398.158 248.013 397.318 247.558 396.592C247.102 395.866 246.452 395.283 245.68 394.91L235 388.7C233.709 388.022 232.273 387.668 230.815 387.668C229.357 387.668 227.921 388.022 226.63 388.7L219.42 392.87L182.16 371.35C180.869 370.672 179.433 370.318 177.975 370.318C176.517 370.318 175.081 370.672 173.79 371.35L158.57 380.14C157.478 380.697 156.541 381.515 155.84 382.52C155.154 383.705 154.944 385.106 155.25 386.44L163.13 425.88C163.59 427.88 165.07 429.59 167.54 431.01L178.23 437.18C179.507 437.878 180.946 438.223 182.4 438.18V438.18C183.861 438.225 185.307 437.88 186.59 437.18L216.89 419.69L225.71 424.78C227.001 425.458 228.437 425.812 229.895 425.812C231.353 425.812 232.789 425.458 234.08 424.78L247.28 417.16C248.052 416.787 248.702 416.204 249.158 415.478C249.613 414.752 249.854 413.912 249.854 413.055C249.854 412.198 249.613 411.358 249.158 410.632C248.702 409.906 248.052 409.323 247.28 408.95L247.29 409ZM188.61 410.69L186.84 401.81L195.41 406.81L188.61 410.69Z" fill="#E0E0E0"/>
<path d="M306.62 347.59C303.95 345.89 301 344.11 297.85 342.28C294.7 340.45 291.56 338.74 288.45 337.09C284.277 334.977 279.897 333.302 275.38 332.09C270.553 330.761 265.576 330.059 260.57 330H259.89C254.834 330.025 249.799 330.65 244.89 331.86C239.275 333.274 233.888 335.476 228.89 338.4C223.44 341.55 219.62 344.68 217.2 348C214.835 350.976 213.555 354.669 213.57 358.47C213.754 362.12 215.163 365.6 217.57 368.35C220.174 371.405 223.229 374.046 226.63 376.18C229.39 377.93 232.41 379.75 235.63 381.6C238.85 383.45 241.91 385.15 244.82 386.67C248.992 388.797 253.372 390.489 257.89 391.72C262.715 393.035 267.689 393.724 272.69 393.77H273.39C278.446 393.746 283.481 393.122 288.39 391.91C294.005 390.496 299.392 388.294 304.39 385.37C309.84 382.22 313.66 379.08 316.08 375.77C318.449 372.796 319.73 369.102 319.71 365.3C319.525 361.651 318.116 358.17 315.71 355.42C313.102 352.357 310.036 349.716 306.62 347.59V347.59ZM288.5 368.47C287.644 369.529 286.565 370.386 285.34 370.98C282.628 372.627 279.513 373.492 276.34 373.48C275.993 373.48 275.643 373.48 275.29 373.48C273.679 373.381 272.088 373.068 270.56 372.55C268.872 371.974 267.233 371.262 265.66 370.42C259.925 367.488 254.345 364.264 248.94 360.76C247.714 360.023 246.583 359.14 245.57 358.13C245.046 357.65 244.659 357.039 244.45 356.36C244.45 356.26 244.36 355.96 244.79 355.3C245.64 354.24 246.717 353.382 247.94 352.79C249.531 351.844 251.258 351.149 253.06 350.73C254.284 350.455 255.535 350.314 256.79 350.31C257.17 350.31 257.54 350.31 257.91 350.31C259.522 350.444 261.111 350.78 262.64 351.31C264.349 351.888 266.02 352.576 267.64 353.37C273.39 356.37 279.02 359.64 284.39 363.04C285.64 363.802 286.807 364.694 287.87 365.7C288.351 366.138 288.697 366.703 288.87 367.33C288.89 367.41 289 367.77 288.5 368.47Z" fill="#E0E0E0"/>
<path d="M394.57 323.93L388.67 320.52L393 318C393.769 317.626 394.417 317.043 394.87 316.318C395.324 315.593 395.564 314.755 395.564 313.9C395.564 313.045 395.324 312.207 394.87 311.482C394.417 310.757 393.769 310.174 393 309.8L382.31 303.63C381.024 302.938 379.58 302.593 378.12 302.63C376.663 302.591 375.222 302.936 373.94 303.63L366.73 307.79L329.47 286.28C328.18 285.604 326.746 285.25 325.29 285.25C323.834 285.25 322.4 285.604 321.11 286.28L305.88 295.07C304.792 295.633 303.856 296.449 303.15 297.45C302.464 298.638 302.253 300.043 302.56 301.38L310.45 340.81C310.9 342.81 312.39 344.52 314.86 345.95L325.54 352.12C326.821 352.815 328.263 353.16 329.72 353.12V353.12C331.177 353.16 332.619 352.815 333.9 352.12L364.2 334.62L373.03 339.72C374.32 340.396 375.754 340.75 377.21 340.75C378.666 340.75 380.1 340.396 381.39 339.72L394.59 332.09C395.362 331.719 396.013 331.137 396.469 330.411C396.925 329.686 397.167 328.847 397.167 327.99C397.167 327.133 396.925 326.294 396.469 325.569C396.013 324.843 395.362 324.262 394.59 323.89L394.57 323.93ZM335.89 325.61L334.12 316.73L342.7 321.68L335.89 325.61Z" fill="#E0E0E0"/>
<path d="M435.37 85.75L425.91 80.29C425.963 79.9056 425.99 79.5181 425.99 79.13V76.39C425.845 73.7358 425.077 71.153 423.748 68.851C422.419 66.5489 420.566 64.5924 418.34 63.14C417.677 62.6977 416.932 62.3921 416.149 62.241C415.366 62.0899 414.561 62.0964 413.78 62.26C413.09 55.32 408.27 47.48 402.43 44.11C396.11 40.46 390.98 43.42 390.98 50.71V54.82C391.017 56.8158 391.355 58.7945 391.98 60.69L384.12 56.15C381.78 54.79 379.88 55.89 379.88 58.6C379.951 60.0776 380.369 61.5177 381.1 62.8034C381.832 64.0891 382.856 65.1843 384.09 66L435.37 95.6C437.71 96.96 439.61 95.86 439.61 93.15C439.536 91.6698 439.113 90.228 438.377 88.9421C437.64 87.6562 436.61 86.5625 435.37 85.75V85.75Z" fill="#EBEBEB"/>
<path d="M378 95.8901L372 92.4101C372.016 92.1637 372.016 91.9165 372 91.6701V89.9301C371.909 88.2381 371.42 86.5915 370.574 85.1234C369.728 83.6554 368.548 82.4073 367.13 81.4801C366.706 81.1991 366.231 81.005 365.731 80.9089C365.232 80.8128 364.718 80.8166 364.22 80.9201C363.78 76.5101 360.71 71.5101 356.99 69.3601C352.99 67.0401 349.7 68.9201 349.7 73.5701V76.1801C349.715 77.4511 349.924 78.7123 350.32 79.9201L345.32 77.0301C343.83 76.1701 342.62 76.8701 342.62 78.5901C342.673 79.5269 342.945 80.4384 343.414 81.2512C343.882 82.064 344.535 82.7555 345.32 83.2701L378 102.14C379.49 103 380.7 102.3 380.7 100.57C380.647 99.6332 380.376 98.7218 379.907 97.909C379.438 97.0962 378.785 96.4047 378 95.8901V95.8901Z" fill="#EBEBEB"/>
<path d="M373.82 300.75C370.59 285.94 365.41 271.42 368.62 248.75C371.54 228.21 382.33 209.86 397.7 207.75C408.06 206.37 417.11 217.92 406.97 232.75C405.28 235.22 383.32 256.75 386.97 286.42L384.92 306.16L373.82 300.75Z" fill="#BA68C8"/>
<g opacity="0.2">
<path d="M373.82 300.75C370.59 285.94 365.41 271.42 368.62 248.75C371.54 228.21 382.33 209.86 397.7 207.75C408.06 206.37 417.11 217.92 406.97 232.75C405.28 235.22 383.32 256.75 386.97 286.42L384.92 306.16L373.82 300.75Z" fill="black"/>
</g>
<path d="M379.2 298.55C379.332 298.489 379.44 298.387 379.508 298.258C379.577 298.13 379.602 297.984 379.58 297.84C373.58 259.84 381.23 231.47 399.58 215.84C399.714 215.726 399.798 215.563 399.813 215.386C399.828 215.21 399.773 215.036 399.66 214.9C399.602 214.826 399.529 214.764 399.446 214.719C399.363 214.674 399.272 214.647 399.177 214.64C399.083 214.632 398.989 214.644 398.9 214.675C398.811 214.707 398.729 214.756 398.66 214.82C380.08 230.62 372.17 259.54 378.21 298.01C378.222 298.097 378.252 298.181 378.297 298.256C378.342 298.332 378.401 298.398 378.472 298.45C378.543 298.502 378.623 298.54 378.709 298.56C378.794 298.581 378.883 298.584 378.97 298.57L379.2 298.55Z" fill="white"/>
<path d="M391.14 312.06C391.07 306.3 394.25 293.74 401.78 282.79C411.28 268.97 426.1 264.45 427.61 257.21C429.43 248.51 420.32 243.54 408.53 247.76C394.34 252.84 377.59 273.27 383.4 307.71L391.14 312.06Z" fill="#6647BF"/>
<path d="M387.27 306C387.398 305.95 387.508 305.863 387.588 305.752C387.668 305.64 387.714 305.507 387.72 305.37C389.32 274.8 407.47 258.79 416.85 254.6C417.023 254.521 417.159 254.377 417.226 254.199C417.294 254.021 417.288 253.824 417.21 253.65C417.173 253.562 417.119 253.483 417.051 253.417C416.982 253.351 416.901 253.299 416.812 253.266C416.723 253.232 416.629 253.217 416.534 253.221C416.439 253.225 416.346 253.248 416.26 253.29C405.89 257.92 387.92 274.09 386.26 305.29C386.256 305.384 386.271 305.479 386.303 305.568C386.336 305.657 386.385 305.738 386.449 305.808C386.513 305.878 386.591 305.934 386.677 305.974C386.762 306.014 386.855 306.036 386.95 306.04C387.058 306.054 387.169 306.041 387.27 306V306Z" fill="white"/>
<path d="M244.66 401.34L231.45 409C230.605 409.421 229.674 409.64 228.73 409.64C227.786 409.64 226.855 409.421 226.01 409L215.72 403L184 421.36C183.156 421.79 182.222 422.014 181.275 422.014C180.328 422.014 179.394 421.79 178.55 421.36L167.87 415.19C166.11 414.19 165.11 413.1 164.87 411.93L157 372.58C156.957 372.349 156.937 372.115 156.94 371.88C156.94 372.64 156.94 382.46 156.94 382.94C156.942 383.141 156.962 383.342 157 383.54L164.87 422.89C165.14 424.06 166.14 425.15 167.87 426.16L178.55 432.33C179.397 432.751 180.329 432.97 181.275 432.97C182.221 432.97 183.153 432.751 184 432.33L215.72 414L226 419.92C226.843 420.348 227.775 420.572 228.72 420.572C229.665 420.572 230.597 420.348 231.44 419.92L244.65 412.3C244.963 412.164 245.232 411.945 245.427 411.666C245.623 411.387 245.738 411.06 245.76 410.72V399.72C245.742 400.065 245.63 400.398 245.436 400.683C245.242 400.969 244.974 401.196 244.66 401.34V401.34Z" fill="#BA68C8"/>
<path d="M244.15 396.64V385.64C244.127 385.98 244.012 386.307 243.816 386.585C243.62 386.864 243.352 387.083 243.04 387.22L234.37 392.22L243.73 397.62C243.986 397.356 244.136 397.007 244.15 396.64V396.64Z" fill="#BA68C8"/>
<path d="M184.02 395.09L190.59 398.9L200.09 393.42L181.54 382.7L184 395.09H184.02Z" fill="#BA68C8"/>
<path opacity="0.35" d="M184.02 395.09L190.59 398.9L200.09 393.42L181.54 382.7L184 395.09H184.02Z" fill="black"/>
<path opacity="0.2" d="M244.15 396.64V385.64C244.127 385.98 244.012 386.307 243.816 386.585C243.62 386.864 243.352 387.083 243.04 387.22L234.37 392.22L243.73 397.62C243.986 397.356 244.136 397.007 244.15 396.64V396.64Z" fill="black"/>
<path opacity="0.2" d="M244.66 401.34L231.45 409C230.613 409.452 229.671 409.673 228.72 409.64V420.64C229.672 420.675 230.616 420.45 231.45 419.99L244.66 412.37C244.973 412.234 245.242 412.015 245.437 411.736C245.633 411.458 245.748 411.13 245.77 410.79V399.79C245.739 400.124 245.62 400.443 245.425 400.715C245.23 400.988 244.966 401.203 244.66 401.34V401.34Z" fill="black"/>
<path opacity="0.25" d="M164.8 411.93L156.93 372.58C156.887 372.349 156.867 372.115 156.87 371.88C156.87 372.64 156.87 382.46 156.87 382.94C156.872 383.141 156.892 383.342 156.93 383.54L164.8 422.89C164.847 423.124 164.928 423.349 165.04 423.56V412.56C164.932 412.362 164.851 412.15 164.8 411.93V411.93Z" fill="black"/>
<path opacity="0.35" d="M181.23 422C180.282 422.023 179.345 421.799 178.51 421.35L167.83 415.18C166.659 414.614 165.687 413.708 165.04 412.58V423.58C165.69 424.705 166.661 425.611 167.83 426.18L178.51 432.35C179.346 432.795 180.283 433.016 181.23 432.99C181.333 433 181.437 433 181.54 432.99V422C181.437 422.015 181.333 422.015 181.23 422V422Z" fill="black"/>
<path opacity="0.2" d="M184 421.36C183.26 421.771 182.426 421.985 181.58 421.98V432.98C182.425 432.975 183.256 432.762 184 432.36L215.72 414V403L184 421.36Z" fill="black"/>
<path opacity="0.35" d="M226 409L215.72 403V414L226 419.92C226.828 420.379 227.764 420.603 228.71 420.57V409.57C227.772 409.624 226.837 409.427 226 409V409Z" fill="black"/>
<path d="M231.45 409C230.603 409.421 229.67 409.64 228.725 409.64C227.779 409.64 226.847 409.421 226 409L215.72 403L184 421.36C183.153 421.781 182.22 422 181.275 422C180.329 422 179.397 421.781 178.55 421.36L167.87 415.19C166.123 414.183 165.123 413.097 164.87 411.93L157.01 372.58C156.85 371.973 156.921 371.328 157.21 370.77C157.668 370.182 158.253 369.703 158.92 369.37L174.15 360.58C174.995 360.159 175.926 359.94 176.87 359.94C177.814 359.94 178.745 360.159 179.59 360.58L218.31 382.94L226.98 377.94C227.827 377.519 228.759 377.3 229.705 377.3C230.65 377.3 231.583 377.519 232.43 377.94L243 384.1C243.326 384.215 243.608 384.428 243.808 384.71C244.007 384.992 244.115 385.329 244.115 385.675C244.115 386.021 244.007 386.358 243.808 386.64C243.608 386.922 243.326 387.135 243 387.25L234.33 392.25L244.62 398.19C244.942 398.307 245.221 398.52 245.418 398.801C245.615 399.082 245.721 399.417 245.721 399.76C245.721 400.103 245.615 400.438 245.418 400.719C245.221 401 244.942 401.213 244.62 401.33L231.45 409ZM200.09 393.46L181.54 382.75L185.37 401.96L200.09 393.46Z" fill="#BA68C8"/>
<path d="M315.64 352.65C315.471 355.601 314.391 358.427 312.55 360.74C310.397 363.68 306.8 366.61 301.76 369.53C297.009 372.32 291.884 374.417 286.54 375.76C281.634 376.977 276.594 377.572 271.54 377.53C266.785 377.492 262.056 376.836 257.47 375.58C253.156 374.406 248.976 372.783 245 370.74C242.12 369.233 239.097 367.566 235.93 365.74C232.763 363.913 229.807 362.126 227.06 360.38C223.915 358.426 221.095 355.993 218.7 353.17C216.69 350.922 215.499 348.06 215.32 345.05C215.38 346.79 215.25 354.1 215.32 356.05C215.496 359.064 216.688 361.929 218.7 364.18C221.1 366.998 223.92 369.43 227.06 371.39C229.82 373.143 232.777 374.926 235.93 376.74C239.083 378.553 242.107 380.22 245 381.74C248.991 383.779 253.184 385.397 257.51 386.57C262.097 387.821 266.826 388.477 271.58 388.52C276.635 388.558 281.674 387.96 286.58 386.74C291.924 385.397 297.049 383.3 301.8 380.51C306.853 377.596 310.45 374.666 312.59 371.72C314.57 369.274 315.656 366.226 315.67 363.08C315.57 361.45 315.68 355.14 315.64 352.65Z" fill="#BA68C8"/>
<path opacity="0.35" d="M274.26 377.48C273.36 377.48 272.46 377.55 271.57 377.48C266.815 377.442 262.086 376.786 257.5 375.53C253.178 374.374 248.988 372.768 245 370.74C242.12 369.233 239.097 367.566 235.93 365.74C232.763 363.913 229.807 362.126 227.06 360.38C223.915 358.426 221.095 355.993 218.7 353.17C216.69 350.922 215.499 348.06 215.32 345.05C215.38 346.79 215.25 354.1 215.32 356.05C215.496 359.064 216.688 361.929 218.7 364.18C221.1 366.998 223.92 369.43 227.06 371.39C229.82 373.143 232.777 374.926 235.93 376.74C239.083 378.553 242.107 380.22 245 381.74C248.991 383.779 253.184 385.397 257.51 386.57C262.097 387.821 266.826 388.477 271.58 388.52C272.47 388.52 273.37 388.52 274.27 388.46L274.26 377.48Z" fill="black"/>
<path opacity="0.2" d="M315.64 352.65C315.471 355.601 314.391 358.427 312.55 360.74C310.397 363.68 306.8 366.61 301.76 369.53C297.009 372.32 291.884 374.417 286.54 375.76C282.515 376.743 278.401 377.32 274.26 377.48V388.48C278.402 388.329 282.517 387.753 286.54 386.76C291.884 385.417 297.009 383.32 301.76 380.53C306.813 377.617 310.41 374.687 312.55 371.74C314.53 369.294 315.616 366.246 315.63 363.1C315.57 361.45 315.68 355.14 315.64 352.65Z" fill="black"/>
<path d="M242.28 346.82C242.896 347.453 243.565 348.031 244.28 348.55C244.62 348.33 244.95 348.11 245.33 347.89C247.182 346.799 249.188 345.994 251.28 345.5C253.149 345.083 255.069 344.938 256.98 345.07C258.835 345.208 260.666 345.578 262.43 346.17C264.27 346.806 266.07 347.554 267.82 348.41C273.667 351.49 279.313 354.753 284.76 358.2C285.47 358.64 286.13 359.1 286.76 359.54C287.964 358.835 289.012 357.893 289.84 356.77C290.536 355.813 290.827 354.62 290.65 353.45C290.367 352.228 289.718 351.122 288.79 350.28C287.562 349.146 286.222 348.141 284.79 347.28C279.337 343.82 273.69 340.56 267.85 337.5C266.103 336.637 264.302 335.885 262.46 335.25C260.695 334.663 258.865 334.293 257.01 334.15C255.099 334.022 253.179 334.17 251.31 334.59C249.217 335.076 247.21 335.878 245.36 336.97C243.747 337.799 242.337 338.974 241.23 340.41C240.887 340.876 240.643 341.408 240.512 341.972C240.381 342.536 240.367 343.12 240.47 343.69C240.789 344.874 241.413 345.953 242.28 346.82V346.82Z" fill="#BA68C8"/>
<path opacity="0.35" d="M242.28 346.82C242.896 347.453 243.565 348.031 244.28 348.55C244.62 348.33 244.95 348.11 245.33 347.89C247.182 346.799 249.188 345.994 251.28 345.5C253.149 345.083 255.069 344.938 256.98 345.07C258.835 345.208 260.666 345.578 262.43 346.17C264.27 346.806 266.07 347.554 267.82 348.41C273.667 351.49 279.313 354.753 284.76 358.2C285.47 358.64 286.13 359.1 286.76 359.54C287.964 358.835 289.012 357.893 289.84 356.77C290.536 355.813 290.827 354.62 290.65 353.45C290.367 352.228 289.718 351.122 288.79 350.28C287.562 349.146 286.222 348.141 284.79 347.28C279.337 343.82 273.69 340.56 267.85 337.5C266.103 336.637 264.302 335.885 262.46 335.25C260.695 334.663 258.865 334.293 257.01 334.15C255.099 334.022 253.179 334.17 251.31 334.59C249.217 335.076 247.21 335.878 245.36 336.97C243.747 337.799 242.337 338.974 241.23 340.41C240.887 340.876 240.643 341.408 240.512 341.972C240.381 342.536 240.367 343.12 240.47 343.69C240.789 344.874 241.413 345.953 242.28 346.82V346.82Z" fill="black"/>
<path d="M229.17 327.61C233.923 324.816 239.051 322.718 244.4 321.38C249.306 320.163 254.345 319.568 259.4 319.61C264.154 319.649 268.884 320.305 273.47 321.56C277.793 322.731 281.982 324.35 285.97 326.39C288.99 327.983 292.083 329.69 295.25 331.51C298.41 333.34 301.25 335.08 303.92 336.75C307.06 338.718 309.882 341.153 312.29 343.97C314.295 346.22 315.482 349.081 315.66 352.09C315.654 355.236 314.571 358.286 312.59 360.73C310.443 363.677 306.846 366.61 301.8 369.53C297.047 372.321 291.918 374.416 286.57 375.75C281.665 376.976 276.625 377.574 271.57 377.53C266.819 377.487 262.093 376.831 257.51 375.58C253.183 374.411 248.99 372.792 245 370.75C242.11 369.23 239.09 367.57 235.93 365.75C232.77 363.93 229.81 362.14 227.05 360.4C223.911 358.434 221.092 355.999 218.69 353.18C216.678 350.933 215.487 348.071 215.31 345.06C215.32 341.912 216.403 338.861 218.38 336.41C220.533 333.47 224.13 330.537 229.17 327.61ZM284.73 347.23C279.276 343.777 273.63 340.517 267.79 337.45C266.044 336.586 264.244 335.838 262.4 335.21C260.652 334.619 258.839 334.246 257 334.1C255.089 333.971 253.169 334.12 251.3 334.54C249.205 335.025 247.198 335.831 245.35 336.93C243.734 337.75 242.322 338.922 241.22 340.36C240.875 340.827 240.629 341.36 240.498 341.926C240.367 342.492 240.354 343.079 240.46 343.65C240.779 344.859 241.427 345.956 242.33 346.82C243.51 348.005 244.83 349.043 246.26 349.91C251.737 353.456 257.391 356.72 263.2 359.69C264.899 360.596 266.668 361.365 268.49 361.99C270.267 362.591 272.117 362.951 273.99 363.06C275.919 363.178 277.854 363.023 279.74 362.6C281.835 362.115 283.842 361.309 285.69 360.21C287.304 359.387 288.714 358.215 289.82 356.78C290.166 356.307 290.416 355.77 290.555 355.201C290.694 354.631 290.72 354.039 290.63 353.46C290.346 352.237 289.693 351.13 288.76 350.29C287.533 349.126 286.181 348.099 284.73 347.23V347.23Z" fill="#BA68C8"/>
<path d="M391.94 316.3L378.73 323.92C377.887 324.348 376.955 324.572 376.01 324.572C375.065 324.572 374.133 324.348 373.29 323.92L363 318L331.23 336.35C330.395 336.797 329.457 337.018 328.51 336.99C327.56 337.017 326.619 336.796 325.78 336.35L315.1 330.17C313.353 329.17 312.353 328.083 312.1 326.91L304.23 287.56C304.212 287.327 304.212 287.093 304.23 286.86C304.23 287.62 304.23 297.44 304.23 297.92C304.216 298.123 304.216 298.327 304.23 298.53L312.1 337.88C312.37 339.05 313.38 340.13 315.1 341.14L325.78 347.31C326.618 347.76 327.559 347.984 328.51 347.96C329.458 347.985 330.396 347.761 331.23 347.31L363 329L373.28 334.94C374.125 335.361 375.056 335.58 376 335.58C376.944 335.58 377.875 335.361 378.72 334.94L391.93 327.32C392.242 327.183 392.51 326.964 392.706 326.685C392.902 326.407 393.017 326.08 393.04 325.74V314.74C393.015 315.075 392.899 315.397 392.705 315.672C392.512 315.946 392.247 316.163 391.94 316.3Z" fill="#BA68C8"/>
<path d="M391.44 311.6V300.6C391.415 300.938 391.299 301.263 391.104 301.539C390.908 301.816 390.64 302.034 390.33 302.17L381.65 307.17L391.02 312.57C391.268 312.305 391.416 311.962 391.44 311.6V311.6Z" fill="#BA68C8"/>
<path d="M331.3 310.06L337.87 313.87L347.38 308.39L328.82 297.67L331.29 310.06H331.3Z" fill="#BA68C8"/>
<path opacity="0.35" d="M331.3 310.06L337.87 313.87L347.38 308.39L328.82 297.67L331.29 310.06H331.3Z" fill="black"/>
<path opacity="0.2" d="M391.44 311.6V300.6C391.415 300.938 391.299 301.263 391.104 301.539C390.908 301.816 390.64 302.034 390.33 302.17L381.65 307.17L391.02 312.57C391.268 312.305 391.416 311.962 391.44 311.6V311.6Z" fill="black"/>
<path opacity="0.2" d="M391.94 316.3L378.73 323.92C377.899 324.379 376.959 324.604 376.01 324.57V335.57C376.957 335.602 377.896 335.381 378.73 334.93L391.94 327.31C392.252 327.173 392.52 326.954 392.716 326.675C392.912 326.397 393.027 326.07 393.05 325.73V314.73C393.026 315.068 392.909 315.393 392.714 315.67C392.518 315.946 392.25 316.164 391.94 316.3Z" fill="black"/>
<path opacity="0.25" d="M312.08 326.89L304.21 287.54C304.192 287.307 304.192 287.073 304.21 286.84C304.21 287.6 304.21 297.42 304.21 297.9C304.196 298.103 304.196 298.307 304.21 298.51L312.08 337.86C312.132 338.09 312.216 338.312 312.33 338.52V327.52C312.22 327.322 312.135 327.11 312.08 326.89V326.89Z" fill="black"/>
<path opacity="0.35" d="M328.52 337C327.57 337.027 326.629 336.806 325.79 336.36L315.11 330.18C313.941 329.62 312.971 328.716 312.33 327.59V338.59C312.97 339.72 313.94 340.627 315.11 341.19L325.79 347.36C326.628 347.81 327.569 348.034 328.52 348.01C328.619 348.025 328.72 348.025 328.82 348.01V337C328.72 337.01 328.62 337.01 328.52 337Z" fill="black"/>
<path opacity="0.2" d="M331.24 336.33C330.497 336.733 329.665 336.946 328.82 336.95V347.95C329.667 347.956 330.5 347.742 331.24 347.33L363 329V318L331.24 336.33Z" fill="black"/>
<path opacity="0.35" d="M373.29 323.92L363 318V329L373.28 334.94C374.113 335.392 375.053 335.613 376 335.58V324.58C375.054 324.61 374.117 324.382 373.29 323.92V323.92Z" fill="black"/>
<path d="M378.73 323.92C377.885 324.341 376.954 324.56 376.01 324.56C375.066 324.56 374.135 324.341 373.29 323.92L363 318L331.24 336.34C330.395 336.761 329.464 336.98 328.52 336.98C327.576 336.98 326.645 336.761 325.8 336.34L315.11 330.17C313.36 329.17 312.35 328.08 312.11 326.91L304.25 287.56C304.093 286.956 304.164 286.315 304.45 285.76C304.906 285.169 305.491 284.691 306.16 284.36L321.39 275.57C322.235 275.149 323.166 274.93 324.11 274.93C325.054 274.93 325.985 275.149 326.83 275.57L365.55 297.92L374.22 292.92C375.064 292.49 375.998 292.265 376.945 292.265C377.892 292.265 378.826 292.49 379.67 292.92L390.36 299.09C390.682 299.207 390.961 299.42 391.158 299.701C391.355 299.982 391.461 300.317 391.461 300.66C391.461 301.003 391.355 301.338 391.158 301.619C390.961 301.9 390.682 302.113 390.36 302.23L381.69 307.23L391.97 313.16C392.296 313.275 392.578 313.488 392.778 313.77C392.977 314.052 393.085 314.389 393.085 314.735C393.085 315.081 392.977 315.418 392.778 315.7C392.578 315.982 392.296 316.195 391.97 316.31L378.73 323.92ZM347.37 308.38L328.82 297.67L332.65 316.88L347.37 308.38Z" fill="#BA68C8"/>
<path d="M310.38 409.16C310.635 409.024 310.921 408.958 311.21 408.97C311.498 408.959 311.785 409.025 312.04 409.16L315.29 411.05C315.39 411.083 315.477 411.147 315.539 411.232C315.6 411.317 315.634 411.42 315.634 411.525C315.634 411.63 315.6 411.733 315.539 411.818C315.477 411.904 315.39 411.967 315.29 412L300.73 420.41C300.476 420.549 300.189 420.618 299.9 420.61C299.61 420.619 299.324 420.55 299.07 420.41L279.22 409C279.104 408.977 279 408.914 278.926 408.823C278.851 408.732 278.81 408.618 278.81 408.5C278.81 408.382 278.851 408.268 278.926 408.177C279 408.086 279.104 408.023 279.22 408L293.54 399.74C293.794 399.6 294.08 399.531 294.37 399.54C294.659 399.534 294.945 399.603 295.2 399.74L298.45 401.62C298.55 401.653 298.637 401.717 298.699 401.802C298.76 401.887 298.794 401.99 298.794 402.095C298.794 402.2 298.76 402.303 298.699 402.388C298.637 402.474 298.55 402.537 298.45 402.57L289 408L292.32 409.91L301.11 404.84C301.365 404.704 301.651 404.638 301.94 404.65C302.228 404.641 302.514 404.706 302.77 404.84L306.02 406.72C306.135 406.743 306.239 406.806 306.314 406.897C306.389 406.988 306.429 407.102 306.429 407.22C306.429 407.338 306.389 407.452 306.314 407.543C306.239 407.634 306.135 407.697 306.02 407.72L297.23 412.79L300.68 414.79L310.38 409.16Z" fill="#6647BF"/>
<path d="M315.23 393.59C315.485 393.452 315.771 393.384 316.06 393.39C316.35 393.381 316.636 393.45 316.89 393.59L320 395.38C320.116 395.403 320.219 395.466 320.294 395.557C320.369 395.648 320.41 395.762 320.41 395.88C320.41 395.998 320.369 396.112 320.294 396.203C320.219 396.294 320.116 396.357 320 396.38L317.2 398C315.32 399.093 315.32 400.183 317.2 401.27L324.76 405.63C324.876 405.653 324.979 405.716 325.054 405.807C325.129 405.898 325.169 406.012 325.169 406.13C325.169 406.248 325.129 406.362 325.054 406.453C324.979 406.544 324.876 406.607 324.76 406.63L320.89 408.86C320.636 408.999 320.349 409.068 320.06 409.06C319.77 409.069 319.484 409 319.23 408.86L304.91 400.6C304.794 400.577 304.691 400.514 304.616 400.423C304.541 400.332 304.5 400.218 304.5 400.1C304.5 399.982 304.541 399.868 304.616 399.777C304.691 399.686 304.794 399.623 304.91 399.6L308.47 397.54C308.724 397.401 309.011 397.332 309.3 397.34C309.59 397.331 309.876 397.4 310.13 397.54L310.84 397.95C310.88 397.36 311.088 396.795 311.44 396.32C311.966 395.646 312.631 395.093 313.39 394.7L315.23 393.59Z" fill="#6647BF"/>
<path d="M330.11 385C330.364 384.86 330.65 384.791 330.94 384.8C331.229 384.792 331.516 384.861 331.77 385L334.87 386.79C334.985 386.813 335.089 386.876 335.164 386.967C335.239 387.058 335.279 387.172 335.279 387.29C335.279 387.408 335.239 387.522 335.164 387.613C335.089 387.704 334.985 387.767 334.87 387.79L332.07 389.4C330.19 390.487 330.19 391.577 332.07 392.67L339.63 397.03C339.745 397.053 339.849 397.116 339.924 397.207C339.999 397.298 340.039 397.412 340.039 397.53C340.039 397.648 339.999 397.762 339.924 397.853C339.849 397.944 339.745 398.007 339.63 398.03L335.76 400.27C335.505 400.406 335.218 400.472 334.93 400.46C334.641 400.47 334.355 400.404 334.1 400.27L319.78 392C319.664 391.977 319.56 391.914 319.486 391.823C319.411 391.732 319.37 391.618 319.37 391.5C319.37 391.382 319.411 391.268 319.486 391.177C319.56 391.086 319.664 391.023 319.78 391L323.35 388.94C323.605 388.804 323.891 388.738 324.18 388.75C324.468 388.741 324.754 388.806 325.01 388.94L325.71 389.35C325.75 388.764 325.958 388.201 326.31 387.73C326.837 387.055 327.502 386.499 328.26 386.1L330.11 385Z" fill="#6647BF"/>
<path d="M356.54 377.62C356.86 377.78 357.27 378 357.75 378.28C358.23 378.56 358.62 378.79 358.9 378.98C359.743 379.475 360.458 380.16 360.99 380.98C361.427 381.656 361.627 382.458 361.56 383.26C361.447 384.142 361.075 384.97 360.49 385.64C359.685 386.566 358.72 387.338 357.64 387.92C356.401 388.638 355.073 389.19 353.69 389.56C352.349 389.926 350.969 390.134 349.58 390.18C348.255 390.223 346.929 390.113 345.63 389.85C344.432 389.616 343.274 389.212 342.19 388.65C341.86 388.48 341.45 388.26 340.97 387.98C340.49 387.7 340.11 387.47 339.82 387.28C338.963 386.792 338.236 386.107 337.7 385.28C337.26 384.602 337.066 383.794 337.15 382.99C337.271 382.107 337.642 381.278 338.22 380.6C339.011 379.666 339.971 378.889 341.05 378.31C342.302 377.584 343.648 377.032 345.05 376.67C346.407 376.314 347.798 376.107 349.2 376.05C350.525 376.006 351.85 376.117 353.15 376.38C354.332 376.634 355.473 377.051 356.54 377.62V377.62ZM347.54 385.35C348.369 385.768 349.292 385.964 350.22 385.92C351.149 385.89 352.057 385.629 352.86 385.16C353.68 384.687 354.12 384.177 354.18 383.63C354.24 383.09 353.92 382.57 353.18 382.09C352.86 381.856 352.526 381.642 352.18 381.45C351.8 381.23 351.43 381.04 351.08 380.88C350.246 380.471 349.323 380.275 348.395 380.31C347.466 380.345 346.561 380.609 345.76 381.08C344.94 381.55 344.5 382.08 344.44 382.6C344.38 383.12 344.71 383.66 345.44 384.15C346.093 384.621 346.794 385.023 347.53 385.35H347.54Z" fill="#6647BF"/>
<path d="M364.53 365.13C364.784 364.99 365.07 364.921 365.36 364.93C365.649 364.922 365.936 364.991 366.19 365.13L369.29 366.92C369.405 366.943 369.509 367.006 369.584 367.097C369.659 367.188 369.699 367.302 369.699 367.42C369.699 367.538 369.659 367.652 369.584 367.743C369.509 367.834 369.405 367.897 369.29 367.92L366.49 369.53C364.61 370.617 364.61 371.707 366.49 372.8L374.05 377.16C374.165 377.183 374.269 377.246 374.344 377.337C374.418 377.428 374.459 377.542 374.459 377.66C374.459 377.778 374.418 377.892 374.344 377.983C374.269 378.074 374.165 378.137 374.05 378.16L370.18 380.39C369.926 380.53 369.639 380.599 369.35 380.59C369.06 380.596 368.774 380.527 368.52 380.39L354.2 372.13C354.084 372.107 353.98 372.044 353.906 371.953C353.831 371.862 353.79 371.748 353.79 371.63C353.79 371.512 353.831 371.398 353.906 371.307C353.98 371.216 354.084 371.153 354.2 371.13L357.77 369.07C358.024 368.93 358.31 368.861 358.6 368.87C358.889 368.864 359.175 368.932 359.43 369.07L360.13 369.48C360.17 368.89 360.378 368.325 360.73 367.85C361.255 367.176 361.921 366.623 362.68 366.23L364.53 365.13Z" fill="#6647BF"/>
<path d="M152.59 274.36C148.37 274.19 146.51 274.61 147.16 279.07C147.81 283.53 148.01 286.97 148.01 286.97C148.01 286.97 155.52 287.19 159.01 285.24C162.5 283.29 158.93 274.61 152.59 274.36Z" fill="#BA68C8"/>
<path opacity="0.5" d="M152.59 274.36C148.37 274.19 146.51 274.61 147.16 279.07C147.81 283.53 148.01 286.97 148.01 286.97C148.01 286.97 155.52 287.19 159.01 285.24C162.5 283.29 158.93 274.61 152.59 274.36Z" fill="black"/>
<path d="M153.26 293.52C152.985 293.518 152.71 293.491 152.44 293.44C151.333 293.22 150.359 292.57 149.731 291.633C149.103 290.695 148.872 289.547 149.09 288.44C150.18 282.9 151.26 278.62 152.22 274.85C153.67 269.603 154.723 264.255 155.37 258.85C156.167 250.459 154.358 242.026 150.19 234.7C149.905 234.221 149.718 233.69 149.639 233.138C149.56 232.587 149.59 232.025 149.728 231.485C149.866 230.945 150.109 230.437 150.443 229.991C150.777 229.545 151.195 229.169 151.675 228.885C152.154 228.601 152.685 228.414 153.236 228.334C153.788 228.255 154.35 228.285 154.89 228.423C155.43 228.561 155.937 228.804 156.383 229.138C156.83 229.472 157.205 229.891 157.49 230.37C162.607 239.272 164.817 249.551 163.81 259.77C163.129 265.561 162.006 271.291 160.45 276.91C159.53 280.58 158.45 284.74 157.45 290.06C157.265 291.035 156.745 291.915 155.98 292.547C155.215 293.179 154.252 293.523 153.26 293.52V293.52Z" fill="#6647BF"/>
<path d="M143.1 299.26C142.902 300.078 142.902 300.932 143.1 301.75C143.69 302.85 146.96 304.2 148.68 304.91C151.058 305.825 152.996 307.614 154.1 309.91C156.02 313.42 159.52 315.79 163.43 317.28C168.678 319.124 174.362 319.33 179.73 317.87C186.42 316.2 186.73 312.17 186.73 312.17C186.73 312.17 186.83 308.39 185.11 307.91C183.39 307.43 143.1 299.26 143.1 299.26Z" fill="#6647BF"/>
<path d="M145.8 285.22C145.61 286.41 145.339 287.586 144.99 288.74C143.99 291.91 142.44 295.18 143.1 299.26C144.2 301.26 146.5 301.96 148.22 302.72C150.53 303.72 152.22 304.43 153.85 306.43C156.85 310.02 159.66 314.56 168.64 315.73C177.62 316.9 184.16 313.63 185.64 310.99C187.12 308.35 185.46 306.08 179.57 303.4C176.57 302.03 169.76 296.4 168.98 295.68C168.258 294.946 167.615 294.138 167.06 293.27C165.822 291.474 165.002 289.424 164.66 287.27C164.396 284.991 164.508 282.683 164.99 280.44C165.09 279.92 165.35 279.38 165.13 278.91C164.56 277.65 162.59 277.98 161.5 278.07C159.87 278.237 158.253 278.514 156.66 278.9C156.132 278.962 155.632 279.174 155.22 279.51C154.892 279.907 154.675 280.383 154.59 280.89C154.38 281.64 154.16 282.39 153.92 283.12C153.867 283.386 153.761 283.638 153.61 283.863C153.459 284.087 153.266 284.28 153.04 284.43C152.789 284.527 152.514 284.545 152.253 284.48C151.992 284.416 151.757 284.273 151.58 284.07C151.239 283.659 151.045 283.145 151.03 282.61C151.03 282.07 151.03 281.54 151.09 281.01C151.147 280.499 151.046 279.982 150.8 279.53C150.21 278.6 148.72 278.45 148.34 277.42C148.258 277.136 148.257 276.836 148.336 276.551C148.416 276.267 148.573 276.01 148.79 275.81C149.244 275.426 149.807 275.196 150.4 275.15C150.983 275.11 151.567 275.11 152.15 275.15L152.47 273.91C151.085 273.707 149.67 273.887 148.38 274.43C147.566 274.774 146.903 275.398 146.51 276.19C146.16 277.176 146.107 278.244 146.36 279.26C146.61 281.6 146.18 282.88 145.8 285.22Z" fill="#BA68C8"/>
<path opacity="0.35" d="M145.8 285.22C145.61 286.41 145.339 287.586 144.99 288.74C143.99 291.91 142.44 295.18 143.1 299.26C144.2 301.26 146.5 301.96 148.22 302.72C150.53 303.72 152.22 304.43 153.85 306.43C156.85 310.02 159.66 314.56 168.64 315.73C177.62 316.9 184.16 313.63 185.64 310.99C187.12 308.35 185.46 306.08 179.57 303.4C176.57 302.03 169.76 296.4 168.98 295.68C168.258 294.946 167.615 294.138 167.06 293.27C165.822 291.474 165.002 289.424 164.66 287.27C164.396 284.991 164.508 282.683 164.99 280.44C165.09 279.92 165.35 279.38 165.13 278.91C164.56 277.65 162.59 277.98 161.5 278.07C159.87 278.237 158.253 278.514 156.66 278.9C156.132 278.962 155.632 279.174 155.22 279.51C154.892 279.907 154.675 280.383 154.59 280.89C154.38 281.64 154.16 282.39 153.92 283.12C153.867 283.386 153.761 283.638 153.61 283.863C153.459 284.087 153.266 284.28 153.04 284.43C152.789 284.527 152.514 284.545 152.253 284.48C151.992 284.416 151.757 284.273 151.58 284.07C151.239 283.659 151.045 283.145 151.03 282.61C151.03 282.07 151.03 281.54 151.09 281.01C151.147 280.499 151.046 279.982 150.8 279.53C150.21 278.6 148.72 278.45 148.34 277.42C148.258 277.136 148.257 276.836 148.336 276.551C148.416 276.267 148.573 276.01 148.79 275.81C149.244 275.426 149.807 275.196 150.4 275.15C150.983 275.11 151.567 275.11 152.15 275.15L152.47 273.91C151.085 273.707 149.67 273.887 148.38 274.43C147.566 274.774 146.903 275.398 146.51 276.19C146.16 277.176 146.107 278.244 146.36 279.26C146.61 281.6 146.18 282.88 145.8 285.22Z" fill="black"/>
<path d="M162.68 314.17C162.672 312.082 163.224 310.031 164.279 308.23C165.335 306.428 166.855 304.943 168.68 303.93C175.13 300.07 179.34 302 181.49 303.33C184.04 304.92 187.77 308.33 185.83 311.15C183.74 314.15 180.17 315.78 173.36 316.32C166.55 316.86 162.68 314.17 162.68 314.17Z" fill="#FAFAFA"/>
<path d="M153.78 291C153.899 291.013 154.019 290.997 154.131 290.954C154.242 290.91 154.341 290.84 154.42 290.75C155.31 289.8 160.72 286.53 164.81 288.21C164.91 288.06 165.08 287.06 164.59 286.75C162.601 286.308 160.535 286.35 158.565 286.872C156.595 287.394 154.779 288.381 153.27 289.75C153.149 289.893 153.089 290.077 153.102 290.264C153.115 290.451 153.201 290.625 153.34 290.75C153.457 290.877 153.611 290.964 153.78 291V291Z" fill="#FAFAFA"/>
<path d="M166.53 292.49C166.531 292.203 166.472 291.92 166.359 291.656C166.245 291.393 166.079 291.156 165.87 290.96C161.21 290.3 156.53 293.23 155.5 294.34C155.38 294.484 155.322 294.67 155.337 294.856C155.352 295.043 155.439 295.216 155.58 295.34C155.703 295.447 155.857 295.51 156.02 295.52C156.138 295.533 156.257 295.518 156.368 295.476C156.479 295.434 156.579 295.367 156.66 295.28C157.52 294.39 162.85 291.3 166.53 292.49Z" fill="#FAFAFA"/>
<path d="M173.58 299.42C173.51 298.94 172.58 298.22 171.79 298.02C166.64 297.67 162.29 301.59 161.44 302.89C161.388 302.971 161.352 303.061 161.336 303.156C161.32 303.251 161.323 303.348 161.346 303.442C161.368 303.535 161.409 303.623 161.467 303.7C161.524 303.777 161.597 303.842 161.68 303.89C161.821 303.974 161.986 304.013 162.15 304C162.267 303.991 162.381 303.956 162.483 303.897C162.585 303.838 162.673 303.757 162.74 303.66C163.5 302.51 168.7 298.12 173.58 299.42Z" fill="#FAFAFA"/>
<path d="M158.7 300C158.818 299.995 158.933 299.964 159.038 299.911C159.144 299.857 159.236 299.782 159.31 299.69C160.06 298.64 164.58 294.69 169.23 295.88C169.23 295.47 168.41 294.66 167.99 294.55C163.38 294.13 158.92 297.62 157.99 298.85C157.883 299.008 157.842 299.202 157.878 299.389C157.914 299.577 158.022 299.743 158.18 299.85C158.331 299.957 158.515 300.01 158.7 300Z" fill="#FAFAFA"/>
<path d="M105.66 289.11C101.46 288.77 99.57 289.11 100.04 293.59C100.51 298.07 100.56 301.52 100.56 301.52C100.56 301.52 108.05 302.05 111.62 300.25C115.19 298.45 112 289.63 105.66 289.11Z" fill="#BA68C8"/>
<path opacity="0.5" d="M105.66 289.11C101.46 288.77 99.57 289.11 100.04 293.59C100.51 298.07 100.56 301.52 100.56 301.52C100.56 301.52 108.05 302.05 111.62 300.25C115.19 298.45 112 289.63 105.66 289.11Z" fill="black"/>
<path d="M105.53 308.28C105.254 308.268 104.979 308.231 104.71 308.17C104.167 308.04 103.655 307.804 103.203 307.475C102.752 307.146 102.37 306.732 102.079 306.255C101.788 305.779 101.594 305.249 101.509 304.697C101.423 304.146 101.447 303.582 101.58 303.04C102.9 297.55 104.16 293.33 105.27 289.59C106.944 284.418 108.221 279.126 109.09 273.76C110.237 265.412 108.785 256.913 104.93 249.42C104.483 248.437 104.427 247.321 104.773 246.298C105.12 245.275 105.842 244.423 106.795 243.914C107.747 243.404 108.857 243.277 109.9 243.557C110.943 243.836 111.84 244.503 112.41 245.42C117.13 254.515 118.905 264.852 117.49 275C116.567 280.763 115.203 286.446 113.41 292C112.33 295.63 111.11 299.74 109.84 305C109.615 305.963 109.062 306.817 108.275 307.416C107.488 308.014 106.518 308.32 105.53 308.28V308.28Z" fill="#6647BF"/>
<path d="M95.1398 313.59C94.8952 314.397 94.8505 315.252 95.0098 316.08C95.5498 317.2 98.7498 318.69 100.44 319.47C102.782 320.494 104.642 322.377 105.64 324.73C107.42 328.31 110.82 330.83 114.64 332.48C119.806 334.542 125.476 334.985 130.9 333.75C137.65 332.37 138.1 328.35 138.1 328.35C138.1 328.35 138.36 324.58 136.66 324.03C134.96 323.48 95.1398 313.59 95.1398 313.59Z" fill="#6647BF"/>
<path d="M98.42 299.68C98.1621 300.86 97.828 302.023 97.42 303.16C96.32 306.29 94.6 309.48 95.09 313.59C96.09 315.59 98.36 316.43 100.09 317.27C102.36 318.39 103.99 319.14 105.56 321.21C108.38 324.92 111.02 329.58 119.95 331.12C128.88 332.66 135.55 329.67 137.13 327.12C138.71 324.57 137.13 322.21 131.38 319.28C128.45 317.79 121.87 311.9 121.12 311.13C118.987 308.716 117.598 305.736 117.12 302.55C116.954 300.262 117.16 297.962 117.73 295.74C117.86 295.23 118.14 294.74 117.94 294.21C117.42 292.93 115.44 293.21 114.35 293.21C112.714 293.305 111.086 293.515 109.48 293.84C108.948 293.88 108.438 294.071 108.01 294.39C107.668 294.774 107.431 295.238 107.32 295.74C107.09 296.48 106.84 297.22 106.56 297.95C106.429 298.477 106.094 298.93 105.63 299.21C105.377 299.297 105.103 299.304 104.846 299.231C104.588 299.158 104.359 299.007 104.19 298.8C103.86 298.375 103.687 297.848 103.7 297.31C103.713 296.775 103.756 296.241 103.83 295.71C103.902 295.202 103.822 294.683 103.6 294.22C103.05 293.27 101.6 293.06 101.23 292.01C101.155 291.725 101.164 291.424 101.257 291.143C101.349 290.863 101.52 290.615 101.75 290.43C102.211 290.056 102.786 289.848 103.38 289.84C103.966 289.801 104.554 289.801 105.14 289.84L105.5 288.62C104.124 288.359 102.704 288.477 101.39 288.96C100.562 289.273 99.8736 289.873 99.45 290.65C99.0631 291.618 98.9658 292.678 99.17 293.7C99.38 296.1 98.9 297.35 98.42 299.68Z" fill="#BA68C8"/>
<path opacity="0.35" d="M98.42 299.68C98.1621 300.86 97.828 302.023 97.42 303.16C96.32 306.29 94.6 309.48 95.09 313.59C96.09 315.59 98.36 316.43 100.09 317.27C102.36 318.39 103.99 319.14 105.56 321.21C108.38 324.92 111.02 329.58 119.95 331.12C128.88 332.66 135.55 329.67 137.13 327.12C138.71 324.57 137.13 322.21 131.38 319.28C128.45 317.79 121.87 311.9 121.12 311.13C118.987 308.716 117.598 305.736 117.12 302.55C116.954 300.262 117.16 297.962 117.73 295.74C117.86 295.23 118.14 294.74 117.94 294.21C117.42 292.93 115.44 293.21 114.35 293.21C112.714 293.305 111.086 293.515 109.48 293.84C108.948 293.88 108.438 294.071 108.01 294.39C107.668 294.774 107.431 295.238 107.32 295.74C107.09 296.48 106.84 297.22 106.56 297.95C106.429 298.477 106.094 298.93 105.63 299.21C105.377 299.297 105.103 299.304 104.846 299.231C104.588 299.158 104.359 299.007 104.19 298.8C103.86 298.375 103.687 297.848 103.7 297.31C103.713 296.775 103.756 296.241 103.83 295.71C103.902 295.202 103.822 294.683 103.6 294.22C103.05 293.27 101.6 293.06 101.23 292.01C101.155 291.725 101.164 291.424 101.257 291.143C101.349 290.863 101.52 290.615 101.75 290.43C102.211 290.056 102.786 289.848 103.38 289.84C103.966 289.801 104.554 289.801 105.14 289.84L105.5 288.62C104.124 288.359 102.704 288.477 101.39 288.96C100.562 289.273 99.8736 289.873 99.45 290.65C99.0631 291.618 98.9658 292.678 99.17 293.7C99.38 296.1 98.9 297.35 98.42 299.68Z" fill="black"/>
<path d="M114.07 329.31C114.145 327.221 114.781 325.19 115.91 323.431C117.04 321.671 118.621 320.248 120.49 319.31C127.1 315.72 131.23 317.82 133.32 319.25C135.8 320.94 139.38 324.52 137.32 327.25C135.1 330.18 131.47 331.64 124.64 331.89C117.81 332.14 114.07 329.31 114.07 329.31Z" fill="#FAFAFA"/>
<path d="M106.16 305.74C106.277 305.758 106.397 305.749 106.51 305.712C106.623 305.676 106.725 305.613 106.81 305.53C107.73 304.61 113.27 301.53 117.29 303.43C117.4 303.27 117.61 302.29 117.13 301.96C115.159 301.437 113.091 301.395 111.1 301.837C109.11 302.279 107.254 303.192 105.69 304.5C105.558 304.633 105.484 304.813 105.484 305C105.484 305.187 105.558 305.367 105.69 305.5C105.813 305.633 105.98 305.718 106.16 305.74Z" fill="#FAFAFA"/>
<path d="M118.83 307.82C118.848 307.532 118.804 307.244 118.701 306.974C118.597 306.705 118.436 306.461 118.23 306.26C113.61 305.4 108.81 308.13 107.74 309.2C107.608 309.333 107.534 309.513 107.534 309.7C107.534 309.887 107.608 310.067 107.74 310.2C107.886 310.337 108.079 310.413 108.28 310.413C108.48 310.413 108.673 310.337 108.82 310.2C109.75 309.33 115.2 306.47 118.83 307.82Z" fill="#FAFAFA"/>
<path d="M125.58 315C125.58 314.52 124.58 313.76 123.85 313.53C118.72 312.96 114.21 316.7 113.3 317.96C113.246 318.039 113.209 318.128 113.191 318.221C113.172 318.315 113.173 318.411 113.193 318.504C113.212 318.598 113.25 318.686 113.305 318.764C113.359 318.843 113.429 318.909 113.51 318.96C113.646 319.051 113.807 319.096 113.97 319.09C114.089 319.085 114.205 319.053 114.311 318.998C114.416 318.943 114.508 318.865 114.58 318.77C115.38 317.7 120.76 313.53 125.58 315Z" fill="#FAFAFA"/>
<path d="M110.68 315C110.8 315.001 110.918 314.975 111.027 314.925C111.136 314.875 111.232 314.801 111.31 314.71C112.11 313.71 116.78 309.93 121.38 311.32C121.43 310.91 120.61 310.08 120.2 309.94C115.61 309.33 111.01 312.63 110.08 313.82C110.023 313.895 109.982 313.981 109.959 314.072C109.936 314.163 109.932 314.258 109.946 314.351C109.96 314.444 109.992 314.534 110.041 314.614C110.089 314.695 110.154 314.765 110.23 314.82C110.356 314.928 110.514 314.991 110.68 315V315Z" fill="#FAFAFA"/>
<path d="M214.06 215.4C210 215.4 204.94 213.97 199.32 210.14C198.657 209.685 198.202 208.986 198.054 208.195C197.907 207.405 198.08 206.588 198.535 205.925C198.99 205.262 199.689 204.807 200.48 204.66C201.27 204.512 202.087 204.685 202.75 205.14C210.31 210.3 215.75 209.7 217.75 208.53C218.227 208.16 218.621 207.694 218.905 207.162C219.19 206.629 219.358 206.042 219.4 205.44C219.88 202.44 218.9 197.62 214.72 192.9C205.88 182.9 194.79 177.79 177.63 175.74C176.834 175.645 176.109 175.237 175.614 174.607C175.119 173.977 174.894 173.176 174.99 172.38C175.085 171.584 175.493 170.859 176.123 170.364C176.753 169.869 177.554 169.645 178.35 169.74C196.87 171.94 209.48 177.85 219.26 188.9C224 194.25 226.26 200.8 225.4 206.42C225.236 207.913 224.739 209.349 223.944 210.624C223.15 211.898 222.078 212.977 220.81 213.78C218.744 214.912 216.414 215.471 214.06 215.4V215.4Z" fill="#6647BF"/>
<path d="M175.68 137.58C180.27 133.25 184.32 120.53 182.23 107.17C180.14 93.81 167.8 81.32 162.88 78.61C157.96 75.9 154.5 79.4 155.88 84.39C157.7 91.16 159.97 106.39 147.32 113.12C148.727 119.631 151.581 125.742 155.67 131C162.19 138.87 175.68 137.58 175.68 137.58Z" fill="#BA68C8"/>
<path opacity="0.75" d="M175.68 137.58C180.27 133.25 184.32 120.53 182.23 107.17C180.14 93.81 167.8 81.32 162.88 78.61C157.96 75.9 154.5 79.4 155.88 84.39C157.7 91.16 159.97 106.39 147.32 113.12C148.727 119.631 151.581 125.742 155.67 131C162.19 138.87 175.68 137.58 175.68 137.58Z" fill="white"/>
<path d="M158.52 86.9999C157.422 87.0039 156.33 86.8421 155.28 86.5199C155.126 86.4694 154.998 86.3605 154.923 86.2166C154.848 86.0726 154.833 85.9051 154.88 85.7499C154.905 85.6738 154.945 85.6032 154.997 85.5424C155.049 85.4815 155.113 85.4316 155.184 85.3954C155.256 85.3591 155.334 85.3374 155.414 85.3313C155.493 85.3252 155.574 85.335 155.65 85.3599C159.65 86.6299 165 85.1499 166.35 80.9899C166.374 80.9144 166.413 80.8445 166.465 80.784C166.516 80.7235 166.579 80.6738 166.649 80.6375C166.72 80.6013 166.797 80.5794 166.876 80.5729C166.955 80.5665 167.034 80.5757 167.11 80.5999C167.185 80.6242 167.255 80.6632 167.316 80.7145C167.376 80.7659 167.426 80.8286 167.462 80.8992C167.499 80.9698 167.521 81.0468 167.527 81.1258C167.533 81.2049 167.524 81.2844 167.5 81.3599C166.29 85.1099 162.34 86.9999 158.52 86.9999Z" fill="#BA68C8"/>
<path d="M163.07 95.41C160.717 95.3959 158.411 94.7538 156.39 93.55C156.259 93.4657 156.165 93.3345 156.128 93.1832C156.091 93.032 156.113 92.8722 156.189 92.7366C156.266 92.601 156.392 92.5 156.541 92.4541C156.689 92.4083 156.85 92.4211 156.99 92.49C158.325 93.3017 159.809 93.8391 161.354 94.0709C162.899 94.3027 164.475 94.2242 165.99 93.84C171.51 92.51 172.69 89.28 172.94 87.95C172.945 87.8635 172.968 87.7791 173.008 87.7022C173.048 87.6254 173.104 87.558 173.172 87.5044C173.24 87.4509 173.319 87.4125 173.403 87.3917C173.487 87.371 173.575 87.3684 173.66 87.3842C173.745 87.3999 173.826 87.4337 173.897 87.4831C173.968 87.5325 174.028 87.5965 174.073 87.6709C174.117 87.7452 174.145 87.8282 174.155 87.9143C174.165 88.0003 174.156 88.0875 174.13 88.17C173.83 89.73 172.48 93.52 166.27 95.02C165.222 95.2728 164.148 95.4037 163.07 95.41Z" fill="#BA68C8"/>
<path d="M169.35 105.93C166.823 105.96 164.316 105.47 161.987 104.489C159.657 103.508 157.555 102.059 155.81 100.23C155.696 100.116 155.633 99.9611 155.633 99.8C155.633 99.6388 155.696 99.4842 155.81 99.37C155.866 99.3125 155.933 99.2668 156.007 99.2357C156.08 99.2045 156.16 99.1884 156.24 99.1884C156.32 99.1884 156.399 99.2045 156.473 99.2357C156.547 99.2668 156.614 99.3125 156.67 99.37C158.3 101.08 160.266 102.434 162.445 103.348C164.624 104.262 166.968 104.715 169.33 104.68C177.13 104.68 179.44 101.02 180.43 99.46C180.472 99.3914 180.527 99.3319 180.592 99.2851C180.657 99.2383 180.731 99.205 180.81 99.1873C180.888 99.1695 180.969 99.1677 181.048 99.1819C181.127 99.1961 181.203 99.2261 181.27 99.27C181.406 99.3563 181.503 99.4933 181.538 99.6507C181.574 99.8082 181.546 99.9733 181.46 100.11C180.47 101.72 177.81 105.93 169.35 105.93Z" fill="#BA68C8"/>
<path d="M172.53 118.13C170.123 118.131 167.732 117.743 165.45 116.98C159.71 115.04 155.56 111.71 153.13 107.09C153.075 106.951 153.073 106.796 153.124 106.655C153.176 106.514 153.278 106.397 153.41 106.327C153.542 106.256 153.696 106.237 153.842 106.273C153.988 106.308 154.115 106.396 154.2 106.52C156.52 110.93 160.32 113.97 165.84 115.83C173.44 118.39 180.7 115.83 182.73 113.97C182.851 113.884 182.999 113.845 183.147 113.861C183.294 113.876 183.431 113.945 183.532 114.054C183.632 114.163 183.689 114.305 183.693 114.454C183.696 114.602 183.645 114.746 183.55 114.86C182 116.33 177.74 118.13 172.53 118.13Z" fill="#BA68C8"/>
<path opacity="0.1" d="M157.19 126.73C168.08 114.3 163.87 94.7299 161.19 89.0899C157.42 81.1899 159.02 77.7199 162.32 78.3399C157.71 76.1999 154.56 79.5999 155.84 84.3399C157.66 91.1099 159.93 106.34 147.28 113.07C148.572 118.925 151.012 124.465 154.46 129.37C155.439 128.564 156.352 127.681 157.19 126.73V126.73Z" fill="black"/>
<path d="M185.68 211.35C181.98 202.35 180.14 177.44 180.9 161.08C183.38 160.56 186.41 157.18 185.19 152.81C184.09 148.88 183.02 148.36 179.7 144.12C177.34 141.12 175.7 137.12 173.58 133.84C166.3 122.7 157.05 115.27 143.43 112.06C142.876 111.928 142.355 111.685 141.898 111.346C141.44 111.007 141.057 110.578 140.77 110.087C140.483 109.595 140.298 109.05 140.228 108.485C140.158 107.92 140.202 107.347 140.36 106.8C141.23 103.8 141.97 99.88 141.06 97C139.37 91.68 136.01 91.14 133.79 92.13C131.57 93.12 131.4 95.32 132.07 98.89C132.74 102.46 131.69 103.09 130.5 102.71C129.31 102.33 128.42 95.83 120.11 92.78C111.8 89.73 106.19 93.78 106.33 97.16C106.48 100.91 109.2 101.16 114.97 101.82C117.475 102.056 119.833 103.11 121.68 104.82C122.2 105.365 122.566 106.04 122.738 106.773C122.91 107.507 122.883 108.274 122.66 108.994C122.437 109.714 122.025 110.361 121.468 110.868C120.91 111.376 120.228 111.725 119.49 111.88C98.3599 116.57 81.9999 134.18 77.3099 157.94C76.5465 162.208 76.0522 166.52 75.8299 170.85V170.85C74.3576 168.349 71.9687 166.519 69.1699 165.75C65.0899 164.75 63.4699 166.7 63.5299 168.52C63.5899 170.34 65.8499 171.21 68.1399 172.16C71.8099 173.68 72.4099 175.09 72.4099 175.09C70.4989 174.796 68.5446 174.993 66.7299 175.66C64.2199 176.77 63.5599 179.48 65.9899 180.52C67.3399 181.09 69.4099 180.06 71.5399 179.52C72.8799 179.21 75.3599 178.71 75.5399 180.32C75.5399 184.09 75.5399 188.02 75.6299 192.07C75.9399 203.48 77.9399 211.29 76.1199 221.64C74.7299 229.48 67.8699 235.64 74.7599 242.15C76.0148 243.321 77.5337 244.171 79.1877 244.629C80.8416 245.087 82.5817 245.139 84.2599 244.78C85.3608 244.58 86.4963 244.814 87.4285 245.433C88.3606 246.052 89.0169 247.008 89.2599 248.1C90.0299 251.35 92.3799 255.31 99.0199 257.1C105.14 258.72 109.02 256.86 111.45 254.59C111.847 254.192 112.32 253.879 112.842 253.671C113.364 253.463 113.923 253.363 114.484 253.378C115.046 253.393 115.599 253.522 116.109 253.758C116.619 253.994 117.075 254.332 117.45 254.75C120 257.8 124.73 261.07 133.28 261.03C141.83 260.99 146.13 257.28 148.28 254.12C148.867 253.211 149.779 252.561 150.829 252.303C151.879 252.044 152.989 252.197 153.93 252.73C157.17 254.65 162.39 256.19 168.93 252.73C173.76 250.15 175.01 245.52 175.13 241.73C175.148 241.145 175.289 240.571 175.544 240.045C175.799 239.518 176.161 239.051 176.609 238.674C177.056 238.296 177.577 238.017 178.139 237.855C178.701 237.692 179.291 237.65 179.87 237.73C181.787 238.126 183.78 237.928 185.582 237.163C187.385 236.399 188.912 235.104 189.96 233.45C194.53 226.49 189 219.46 185.68 211.35Z" fill="#BA68C8"/>
<g opacity="0.1">
<path d="M68.1399 172.16C71.8099 173.68 72.4099 175.09 72.4099 175.09C70.4989 174.797 68.5446 174.993 66.7299 175.66C64.2199 176.77 63.5599 179.48 65.9899 180.52C67.3399 181.09 69.4099 180.06 71.5399 179.52C72.8799 179.21 75.3599 178.71 75.5399 180.32C75.5399 184.09 75.5399 188.02 75.6299 192.07C75.9399 203.48 77.9399 211.29 76.1199 221.64C74.7299 229.48 67.8699 235.64 74.7599 242.15C76.1674 243.497 77.9355 244.407 79.8499 244.77C79.6399 244.66 76.4199 239.48 80.2199 232.01C85.5599 221.5 85.2199 214.93 83.8299 193.64C82.1199 167.64 85.3099 156.47 94.7599 138.07C104.45 119.21 119.85 118.3 126.39 113.3C129.95 110.58 128.73 105.65 125.62 102.52C123.01 99.89 118.93 98.82 116.52 98.57C111.26 98.03 106.37 97.11 107.36 94.48C106.713 95.2032 106.357 96.1399 106.36 97.11C106.51 100.86 109.23 101.11 115 101.77C117.505 102.006 119.863 103.06 121.71 104.77C122.23 105.315 122.596 105.99 122.768 106.723C122.94 107.457 122.913 108.224 122.69 108.944C122.467 109.664 122.055 110.311 121.498 110.818C120.94 111.326 120.258 111.675 119.52 111.83C98.3599 116.57 81.9999 134.18 77.3099 157.94C76.5465 162.208 76.0522 166.52 75.8299 170.85V170.85C74.3576 168.349 71.9687 166.519 69.1699 165.75C65.0899 164.75 63.4699 166.7 63.5299 168.52C63.5899 170.34 65.8499 171.21 68.1399 172.16Z" fill="black"/>
<path d="M94.7199 248.25C92.0399 244.71 89.8699 244.13 86.1399 244.92C86.9011 245.123 87.5923 245.53 88.1387 246.098C88.6851 246.665 89.0659 247.372 89.2399 248.14C90.0099 251.39 92.3599 255.35 98.9999 257.14C103.32 258.29 106.55 257.69 108.91 256.44C99.2999 258.5 97.4099 251.78 94.7199 248.25Z" fill="black"/>
<path d="M140.8 259.81C136.07 260.43 131.64 259.36 126.66 255.71C121.29 251.78 118.66 252.15 115.34 253.48C116.162 253.664 116.9 254.114 117.44 254.76C119.99 257.81 124.72 261.08 133.27 261.04C135.832 261.062 138.378 260.646 140.8 259.81V259.81Z" fill="black"/>
<path d="M134.27 97.3399C134.09 94.1799 136.1 91.7999 138.58 92.8399C137.935 92.2717 137.14 91.9024 136.29 91.7764C135.44 91.6504 134.572 91.7732 133.79 92.1299C131.56 93.1299 131.4 95.3199 132.07 98.8899C132.74 102.46 131.69 103.09 130.5 102.71C130.265 102.585 130.076 102.389 129.96 102.15V102.15C130.88 104.15 131.77 106.15 133.85 105.07C135.93 103.99 134.45 100.49 134.27 97.3399Z" fill="black"/>
</g>
<path opacity="0.2" d="M114.15 169.43C114.527 170.851 115.376 172.101 116.557 172.977C117.738 173.853 119.181 174.302 120.65 174.25C126 174.18 126.59 171.75 128.78 168.43C130.97 165.11 135.68 164.37 139.78 164.3C140.864 164.246 141.918 163.928 142.851 163.372C143.783 162.817 144.566 162.042 145.13 161.115C145.694 160.188 146.023 159.137 146.087 158.054C146.152 156.97 145.95 155.888 145.5 154.9C145.609 155.978 145.412 157.066 144.93 158.037C144.449 159.008 143.704 159.824 142.78 160.39C139.5 162.53 135.14 160.6 130.85 162.65C126.56 164.7 126.19 169.33 123.04 170.8C121.575 171.41 119.971 171.605 118.403 171.363C116.834 171.121 115.363 170.453 114.15 169.43Z" fill="black"/>
<path d="M139.21 166.66C139.041 168.341 138.344 169.925 137.219 171.186C136.094 172.446 134.599 173.318 132.948 173.677C131.297 174.035 129.575 173.862 128.029 173.182C126.482 172.502 125.191 171.349 124.34 169.89C126.46 167.89 127.26 164.49 130.84 162.65C133.67 161.21 135.84 161.87 138.19 161.8C139.033 163.272 139.39 164.973 139.21 166.66Z" fill="#6647BF"/>
<path d="M119.75 172C118.103 172.106 116.463 171.699 115.056 170.836C113.649 169.973 112.543 168.696 111.89 167.18C111.826 167.033 111.823 166.866 111.881 166.716C111.939 166.566 112.053 166.446 112.2 166.38C112.273 166.347 112.351 166.329 112.431 166.326C112.511 166.324 112.591 166.338 112.665 166.367C112.74 166.396 112.808 166.439 112.865 166.495C112.923 166.55 112.969 166.617 113 166.69C113.92 168.77 116 171.16 120.81 170.74C123.5 170.51 124.54 168.9 125.81 166.86C126.902 164.855 128.533 163.195 130.52 162.07C132.341 161.173 134.384 160.826 136.4 161.07C138.595 161.401 140.834 160.883 142.66 159.62C143.328 159.188 143.876 158.596 144.255 157.897C144.634 157.198 144.832 156.415 144.83 155.62C144.851 154.7 144.691 153.785 144.358 152.927C144.025 152.069 143.526 151.285 142.89 150.62C142.76 150.524 142.674 150.381 142.65 150.222C142.625 150.063 142.665 149.9 142.76 149.77C142.806 149.705 142.864 149.65 142.931 149.608C142.999 149.566 143.074 149.538 143.152 149.526C143.231 149.514 143.311 149.518 143.388 149.538C143.465 149.557 143.537 149.592 143.6 149.64C144.81 150.52 146.08 153.13 146.04 155.64C146.038 156.632 145.791 157.607 145.319 158.48C144.848 159.352 144.168 160.095 143.34 160.64C141.297 162.051 138.799 162.643 136.34 162.3C134.54 162.053 132.707 162.342 131.07 163.13C129.275 164.156 127.805 165.667 126.83 167.49C125.51 169.49 124.14 171.64 120.83 171.92C120.51 172 120.12 172 119.75 172Z" fill="#6647BF"/>
<path d="M137.12 165.79C137.116 166.228 136.982 166.654 136.736 167.015C136.489 167.377 136.141 167.657 135.735 167.82C135.329 167.983 134.884 168.023 134.455 167.933C134.027 167.843 133.635 167.628 133.33 167.315C133.024 167.002 132.818 166.605 132.737 166.175C132.657 165.745 132.706 165.301 132.879 164.899C133.051 164.497 133.339 164.155 133.706 163.916C134.073 163.678 134.502 163.554 134.94 163.56C135.23 163.563 135.516 163.622 135.783 163.736C136.049 163.85 136.291 164.015 136.493 164.222C136.696 164.429 136.855 164.674 136.963 164.944C137.071 165.213 137.124 165.5 137.12 165.79V165.79Z" fill="#F5F5F5"/>
<path opacity="0.2" d="M180.89 161.35L180.36 161.08C179.272 161.007 178.229 160.617 177.36 159.96C176.29 158.96 175.09 155.73 171.67 154.9C168.25 154.07 166.33 155.73 162.53 155.9C158.73 156.07 157.46 153.44 156.7 151.24C156.29 154.97 157.35 157.47 160.05 158.57C163.05 159.79 168.49 157.23 170.81 158.57C173.13 159.91 174.47 162.68 177.36 163C178.555 163.181 179.776 162.937 180.81 162.31C180.86 162 180.88 161.67 180.89 161.35Z" fill="black"/>
<path d="M177.4 160C176.926 161.893 175.749 163.535 174.109 164.593C172.469 165.652 170.488 166.046 168.567 165.698C166.647 165.349 164.931 164.284 163.767 162.717C162.603 161.15 162.079 159.199 162.3 157.26C162.349 156.809 162.44 156.364 162.57 155.93C165.39 155.86 167.96 153.93 171.71 154.93C175 155.81 175.23 158.42 177.4 160Z" fill="#6647BF"/>
<path d="M180.81 161.69C179.971 161.65 179.143 161.475 178.36 161.17C176.949 160.545 175.768 159.496 174.98 158.17C174.23 156.849 172.997 155.87 171.54 155.44C169.647 155.012 167.67 155.144 165.85 155.82C163.76 156.41 161.6 157.02 159.03 155.47C157.863 154.772 156.962 153.704 156.471 152.436C155.98 151.168 155.927 149.772 156.32 148.47C156.346 148.395 156.386 148.326 156.439 148.266C156.492 148.207 156.556 148.158 156.628 148.124C156.699 148.09 156.777 148.07 156.856 148.066C156.936 148.062 157.015 148.073 157.09 148.1C157.165 148.127 157.235 148.168 157.294 148.222C157.354 148.276 157.402 148.341 157.437 148.413C157.471 148.486 157.491 148.564 157.495 148.644C157.499 148.724 157.487 148.805 157.46 148.88C157.17 149.917 157.227 151.021 157.622 152.023C158.018 153.025 158.73 153.87 159.65 154.43C161.78 155.71 163.51 155.22 165.52 154.66C167.552 153.907 169.761 153.772 171.87 154.27C173.613 154.771 175.094 155.929 176 157.5C176.667 158.619 177.662 159.506 178.85 160.04C179.513 160.293 180.211 160.438 180.92 160.47C181.079 160.47 181.232 160.529 181.349 160.637C181.465 160.744 181.537 160.892 181.55 161.05C181.554 161.13 181.542 161.209 181.515 161.284C181.488 161.359 181.446 161.428 181.392 161.487C181.338 161.545 181.273 161.593 181.2 161.626C181.128 161.659 181.05 161.677 180.97 161.68L180.81 161.69Z" fill="#6647BF"/>
<path d="M174.07 159.55C174.066 159.959 173.94 160.358 173.708 160.695C173.477 161.032 173.15 161.293 172.77 161.444C172.39 161.595 171.973 161.629 171.573 161.542C171.174 161.456 170.809 161.252 170.525 160.957C170.241 160.662 170.052 160.289 169.981 159.887C169.91 159.484 169.961 159.069 170.127 158.695C170.292 158.321 170.566 158.004 170.912 157.786C171.258 157.568 171.661 157.458 172.07 157.47C172.339 157.47 172.606 157.524 172.854 157.63C173.102 157.735 173.326 157.889 173.513 158.084C173.7 158.278 173.846 158.508 173.941 158.76C174.037 159.012 174.081 159.281 174.07 159.55Z" fill="#F5F5F5"/>
<path d="M149.81 176.64C139.42 181.29 130.29 190.48 126.07 200.64C123.47 206.89 124.89 212.08 128.37 213.26C135.25 215.58 142.96 204.86 150.63 201.12C158.3 197.38 164.54 201 168.43 198.49C173.01 195.54 172.34 188.01 169.88 182.64C167.14 176.62 160.21 172 149.81 176.64Z" fill="#6647BF"/>
<path d="M168.17 198.61C164.36 185.36 151.92 181.23 139.3 183.23C133.563 187.886 129.026 193.849 126.07 200.62C123.47 206.87 124.89 212.06 128.37 213.24C135.25 215.56 142.96 204.84 150.63 201.1C158.05 197.48 164.26 200.81 168.17 198.61Z" fill="#F28F8F"/>
<path opacity="0.1" d="M160 199.3C147.23 195.87 139 206.84 134.95 206.74C130.9 206.64 128.95 203.11 134.56 194.16C140.17 185.21 152.17 182.76 157.41 185.38C152.18 182.8 145.79 182.21 139.34 183.23C133.603 187.886 129.066 193.849 126.11 200.62C123.51 206.86 124.93 212.06 128.41 213.24C135.29 215.56 143 204.84 150.67 201.1C153.583 199.738 156.789 199.119 160 199.3Z" fill="black"/>
<path d="M164.86 186.62C162.4 187.69 162.43 190.96 160.4 197.91C160.26 198.4 160.12 198.91 159.98 199.31C163.4 199.39 166.29 199.85 168.43 198.47C168.858 198.184 169.251 197.848 169.6 197.47C170.1 192.22 167.46 185.49 164.86 186.62Z" fill="#F5F5F5"/>
<path d="M169.6 197.49C169.657 196.865 169.673 196.237 169.65 195.61C168.948 196.558 167.936 197.23 166.79 197.51C165.482 197.722 164.148 197.722 162.84 197.51C162.84 197.51 163.48 193.45 164.12 189.96C164.54 187.62 165.94 186.6 167.06 187.41C166.37 186.64 165.62 186.29 164.86 186.62C162.4 187.69 162.43 190.96 160.4 197.91C160.26 198.4 160.12 198.91 159.98 199.31C163.4 199.39 166.29 199.85 168.43 198.47C168.857 198.19 169.25 197.861 169.6 197.49V197.49Z" fill="#E0E0E0"/>
<path d="M138.47 195.25C136 196.32 136.04 199.59 134.01 206.54C133.12 209.54 132.36 211.82 131.77 213.42C135.44 212.72 139.29 209.42 143.2 206.25C143.75 201 141.09 194.11 138.47 195.25Z" fill="#F5F5F5"/>
<path d="M143.2 206.24C143.275 205.372 143.275 204.498 143.2 203.63C139.31 206.15 136.97 208.85 136.35 208.51C135.73 208.17 136.27 205.44 136.53 202.44C136.85 198.81 137.3 195.05 139.72 195.31C139.524 195.207 139.308 195.148 139.087 195.137C138.865 195.127 138.645 195.165 138.44 195.25C135.97 196.32 136.01 199.59 133.98 206.54C133.09 209.54 132.33 211.82 131.74 213.42C135.41 212.72 139.26 209.42 143.17 206.25L143.2 206.24Z" fill="#E0E0E0"/>
<path d="M53.7599 240.39C53.4203 240.389 53.0829 240.335 52.7599 240.23C52.3798 240.107 52.0281 239.909 51.7254 239.649C51.4227 239.388 51.1752 239.069 50.9973 238.712C50.8194 238.354 50.7147 237.964 50.6894 237.566C50.6641 237.167 50.7186 236.767 50.8499 236.39C58.9999 212.3 70.8299 202.12 87.3699 193.5C87.7232 193.316 88.1092 193.204 88.5059 193.169C88.9026 193.134 89.3023 193.178 89.6821 193.298C90.0619 193.418 90.4143 193.611 90.7194 193.867C91.0244 194.123 91.276 194.437 91.4599 194.79C91.6437 195.143 91.7562 195.529 91.7909 195.926C91.8256 196.323 91.7817 196.722 91.662 197.102C91.5422 197.482 91.3488 197.834 91.0927 198.139C90.8367 198.445 90.5232 198.696 90.1699 198.88C74.5799 207 64.0999 216.06 56.6399 238.32C56.4356 238.922 56.0481 239.445 55.5317 239.817C55.0153 240.188 54.3958 240.388 53.7599 240.39V240.39Z" fill="#6647BF"/>
<path d="M51.6199 234.22C50.3499 237.52 48.4099 238.85 46.5599 240.8C44.7099 242.75 42.7099 243.93 40.7799 246.97C38.8499 250.01 37.9399 255.17 38.5199 257.58C38.8399 258.94 40.7299 258.95 40.8399 257.76C41.2499 253.32 41.9899 249.5 45.0999 247.13C43.8606 249.707 43.0532 252.471 42.7099 255.31C42.4299 259.21 42.9499 263.87 44.5599 264.1C46.1699 264.33 46.1199 262.68 45.8899 260.33C45.6599 257.98 45.4499 251.78 48.5799 247.33C48.5799 247.33 47.4599 253.87 48.5799 258.05C49.6999 262.23 51.8599 265.21 53.0599 264.7C54.2599 264.19 54.1999 263.39 52.8999 260.18C51.8999 257.69 51.8999 254.53 52.1999 251.85C52.2624 249.408 53.232 247.076 54.9199 245.31C55.5514 244.628 56.3465 244.119 57.2299 243.83C57.7278 243.767 58.2336 243.815 58.7108 243.971C59.188 244.126 59.6248 244.385 59.9899 244.73C61.3394 245.978 62.2007 247.665 62.4199 249.49C62.6999 251.59 66.1699 251.78 64.8799 245.88C63.5899 239.98 56.3199 238.94 58.1399 234.12L51.6199 234.22Z" fill="#6647BF"/>
<path d="M202.67 212.13L205.44 206.77C201.14 204.53 206.06 197.94 203.57 192.43C201.08 186.92 198.42 189.14 199.44 190.99C199.934 191.764 200.268 192.629 200.421 193.534C200.574 194.44 200.543 195.367 200.33 196.26C199.91 197.73 198.96 198.59 197.95 197.72C196.94 196.85 196.29 193.99 192.58 190.84C190.38 188.823 187.558 187.616 184.58 187.42C181.68 187.42 182.7 189.42 184.09 189.99C190.09 192.39 190.83 193.73 192.33 195.69C193.83 197.65 193.64 198.77 192.86 198.54C192.08 198.31 190.86 196.61 187.24 194.93C183.62 193.25 179.53 193.26 178.9 194.03C178.27 194.8 178.34 195.79 180.08 196.2C182.639 196.735 185.127 197.57 187.49 198.69C190.04 200.16 191.2 202.06 190.78 202.61C190.36 203.16 188.18 201.61 184.86 201.01C181.54 200.41 179.86 200.4 178.46 200.94C177.46 201.33 177.81 203.38 180.85 203.53C183.936 203.785 186.922 204.754 189.57 206.36C191.154 207.507 192.849 208.492 194.63 209.3C197.255 210.392 199.939 211.336 202.67 212.13Z" fill="#6647BF"/>
<path d="M103.38 131.17C106.89 133.01 112.52 142.59 105.62 152.78C103.422 156.249 100.224 158.971 96.4488 160.586C92.6732 162.202 88.4968 162.635 84.4698 161.83C81.6698 160.47 67.0098 154.11 66.2898 133.83C65.5698 113.55 77.9998 105.83 81.1598 104C84.3198 102.17 90.4998 101.67 89.7298 108.61C88.9598 115.55 88.2298 121.71 93.2698 126.17C97.2298 129.7 103.38 131.17 103.38 131.17Z" fill="#BA68C8"/>
<path opacity="0.75" d="M103.38 131.17C106.89 133.01 112.52 142.59 105.62 152.78C103.422 156.249 100.224 158.971 96.4488 160.586C92.6732 162.202 88.4968 162.635 84.4698 161.83C81.6698 160.47 67.0098 154.11 66.2898 133.83C65.5698 113.55 77.9998 105.83 81.1598 104C84.3198 102.17 90.4998 101.67 89.7298 108.61C88.9598 115.55 88.2298 121.71 93.2698 126.17C97.2298 129.7 103.38 131.17 103.38 131.17Z" fill="white"/>
<path d="M77.1298 157.52C76.6389 157.521 76.1483 157.498 75.6598 157.45C75.4995 157.432 75.3527 157.352 75.2515 157.226C75.1503 157.101 75.103 156.94 75.1198 156.78C75.1374 156.62 75.2178 156.473 75.3433 156.372C75.4689 156.27 75.6294 156.223 75.7898 156.24C78.7898 156.57 88.1298 155.89 94.5598 148.88C101.13 141.71 101.4 134.72 100.46 130.12C100.444 130.042 100.443 129.963 100.458 129.885C100.473 129.807 100.503 129.733 100.547 129.667C100.591 129.601 100.647 129.544 100.713 129.5C100.778 129.456 100.852 129.425 100.93 129.41C101.088 129.377 101.252 129.408 101.387 129.497C101.522 129.585 101.616 129.722 101.65 129.88C102.65 134.75 102.37 142.15 95.4498 149.7C89.5198 156.17 81.2398 157.52 77.1298 157.52Z" fill="#BA68C8"/>
<path d="M73.4098 144.14C71.1872 144.151 68.9692 143.936 66.7898 143.5C66.7123 143.483 66.639 143.451 66.5739 143.405C66.5089 143.36 66.4534 143.302 66.4107 143.235C66.368 143.168 66.3389 143.094 66.325 143.016C66.3111 142.938 66.3128 142.858 66.3298 142.78C66.3469 142.703 66.3791 142.629 66.4245 142.564C66.4699 142.499 66.5277 142.444 66.5946 142.401C66.6614 142.358 66.736 142.329 66.8141 142.315C66.8923 142.301 66.9723 142.303 67.0498 142.32C67.5098 142.42 78.3898 144.78 86.1798 139.55C93.2398 134.82 93.8598 129.11 94.1198 126.67C94.1375 126.51 94.2178 126.363 94.3434 126.262C94.4689 126.161 94.6294 126.113 94.7898 126.13C94.8694 126.137 94.9466 126.161 95.0168 126.199C95.087 126.237 95.1488 126.289 95.1983 126.352C95.2479 126.414 95.2842 126.486 95.3051 126.563C95.326 126.64 95.331 126.721 95.3198 126.8C95.0698 129.18 94.3898 135.51 86.8598 140.56C82.5698 143.44 77.4198 144.14 73.4098 144.14Z" fill="#BA68C8"/>
<path d="M76.31 128C72.6515 128.106 69.0422 127.136 65.93 125.21C65.8595 125.169 65.7982 125.114 65.7497 125.048C65.7012 124.983 65.6667 124.908 65.6481 124.828C65.6295 124.749 65.6273 124.666 65.6417 124.586C65.656 124.506 65.6866 124.429 65.7316 124.361C65.7765 124.293 65.8349 124.235 65.9031 124.19C65.9713 124.145 66.0479 124.115 66.1282 124.101C66.2086 124.087 66.291 124.089 66.3704 124.108C66.4498 124.127 66.5245 124.161 66.59 124.21C68.59 125.53 73.07 127.58 80.3 126.48C86.01 125.61 88.49 123.77 90.3 121.92C90.3558 121.863 90.4222 121.819 90.4954 121.788C90.5685 121.757 90.6471 121.741 90.7265 121.74C90.8059 121.74 90.8846 121.755 90.9581 121.785C91.0316 121.815 91.0985 121.859 91.155 121.915C91.2115 121.971 91.2564 122.037 91.2872 122.11C91.318 122.183 91.3341 122.262 91.3346 122.341C91.335 122.421 91.3199 122.5 91.2899 122.573C91.26 122.647 91.2158 122.713 91.16 122.77C89.16 124.77 86.54 126.77 80.48 127.68C79.1001 127.892 77.7061 127.999 76.31 128Z" fill="#BA68C8"/>
<path d="M82.6798 116.3C81.4438 116.294 80.2138 116.129 79.0198 115.81C77.5463 115.486 76.1618 114.843 74.9643 113.926C73.7669 113.008 72.7855 111.839 72.0898 110.5C72.0536 110.428 72.0319 110.35 72.0259 110.271C72.0199 110.191 72.0297 110.11 72.0548 110.034C72.0798 109.958 72.1197 109.887 72.172 109.827C72.2244 109.766 72.2882 109.716 72.3598 109.68C72.4306 109.644 72.5078 109.623 72.587 109.617C72.6663 109.611 72.7458 109.621 72.8212 109.646C72.8965 109.671 72.9662 109.711 73.026 109.763C73.0858 109.815 73.1347 109.879 73.1698 109.95C73.7818 111.14 74.6514 112.178 75.7153 112.989C76.7792 113.801 78.0105 114.365 79.3198 114.64C81.0031 115.113 82.769 115.215 84.4955 114.939C86.2221 114.662 87.868 114.015 89.3198 113.04C89.3854 112.994 89.4597 112.962 89.5382 112.945C89.6167 112.929 89.6977 112.928 89.7764 112.944C89.855 112.96 89.9295 112.992 89.9955 113.038C90.0614 113.083 90.1173 113.142 90.1598 113.21C90.2046 113.276 90.2357 113.35 90.2514 113.429C90.2671 113.507 90.2671 113.588 90.2512 113.666C90.2354 113.744 90.2041 113.818 90.1592 113.884C90.1143 113.95 90.0567 114.007 89.9898 114.05C87.8301 115.508 85.2856 116.291 82.6798 116.3V116.3Z" fill="#BA68C8"/>
<path opacity="0.1" d="M92.38 154.6C87.96 154.19 82.38 152.94 77.63 145.6C72.88 138.26 71.35 122.95 75.72 113.73C78.6 107.66 84.35 102.1 88.5 103.96C86.65 102.23 83.23 102.85 81.16 104.04C78.04 105.84 65.57 113.59 66.29 133.86C67.01 154.13 81.67 160.48 84.47 161.86C88.4969 162.665 92.6734 162.232 96.449 160.616C100.225 159.001 103.422 156.279 105.62 152.81C110.24 145.99 109.24 139.44 107.03 135.3C110.49 146.14 99 155.2 92.38 154.6Z" fill="black"/>
<path d="M101.46 152.5C101.46 152.5 96.2398 158.25 96.1998 163.77C96.1689 164.479 96.2819 165.188 96.532 165.852C96.7821 166.517 97.1642 167.124 97.6552 167.637C98.1463 168.15 98.736 168.558 99.3891 168.837C100.042 169.116 100.745 169.259 101.455 169.259C102.165 169.259 102.868 169.116 103.521 168.837C104.174 168.558 104.763 168.15 105.254 167.637C105.745 167.124 106.128 166.517 106.378 165.852C106.628 165.188 106.741 164.479 106.71 163.77C106.67 158.25 101.46 152.5 101.46 152.5Z" fill="#FAFAFA"/>
<path d="M280 60.6899L215.54 97.8799C215.185 98.1086 214.89 98.4182 214.677 98.7832C214.465 99.1483 214.343 99.5584 214.32 99.98V140.52C214.344 140.94 214.467 141.348 214.679 141.712C214.891 142.075 215.186 142.383 215.54 142.61L219.89 145.04C220.267 145.23 220.683 145.329 221.105 145.329C221.527 145.329 221.943 145.23 222.32 145.04L286.81 107.86C287.162 107.629 287.455 107.319 287.665 106.954C287.875 106.589 287.997 106.18 288.02 105.76V65.2099C287.996 64.7899 287.874 64.3815 287.661 64.0182C287.449 63.6549 287.154 63.347 286.8 63.1199L282.45 60.68C282.069 60.4906 281.649 60.3929 281.224 60.3947C280.799 60.3964 280.379 60.4975 280 60.6899V60.6899Z" fill="#BA68C8"/>
<path d="M221.11 144.33V103.79C221.133 103.37 221.255 102.961 221.465 102.596C221.675 102.231 221.968 101.921 222.32 101.69L286.81 64.5099C287.48 64.1199 288.02 64.4399 288.02 65.2099V105.75C287.997 106.17 287.875 106.579 287.665 106.944C287.455 107.309 287.162 107.619 286.81 107.85L222.32 145C221.65 145.42 221.11 145.1 221.11 144.33Z" fill="#BA68C8"/>
<path opacity="0.2" d="M222.32 145C221.944 145.192 221.527 145.292 221.105 145.292C220.683 145.292 220.266 145.192 219.89 145L215.54 142.55C215.186 142.326 214.89 142.02 214.678 141.658C214.465 141.296 214.343 140.889 214.32 140.47V100C214.336 99.559 214.47 99.1305 214.71 98.76L221.47 102.62C221.245 102.977 221.121 103.388 221.11 103.81V144.35C221.11 145 221.61 145.45 222.32 145Z" fill="black"/>
<path opacity="0.4" d="M288 64.9999C287.91 64.3899 287.41 64.1699 286.8 64.5199L222.33 101.7C221.972 101.926 221.676 102.239 221.47 102.61L214.7 98.7499C214.902 98.3964 215.191 98.1004 215.54 97.8899L280 60.6899C280.378 60.5023 280.794 60.4047 281.215 60.4047C281.637 60.4047 282.053 60.5023 282.43 60.6899L286.78 63.1299C287.106 63.3351 287.384 63.6085 287.595 63.9313C287.806 64.2541 287.944 64.6187 288 64.9999Z" fill="white"/>
<path d="M214.32 114.38L204.56 124.31C204.448 124.424 204.363 124.561 204.311 124.712C204.259 124.863 204.24 125.024 204.258 125.183C204.275 125.341 204.327 125.494 204.41 125.63C204.494 125.767 204.606 125.883 204.74 125.97C204.94 126.11 211.5 129.86 211.5 129.86L221.11 118.29L214.32 114.38Z" fill="#BA68C8"/>
<path opacity="0.1" d="M214.32 114.38L204.56 124.31C204.448 124.424 204.363 124.561 204.311 124.712C204.259 124.863 204.24 125.024 204.258 125.183C204.275 125.341 204.327 125.494 204.41 125.63C204.494 125.767 204.606 125.883 204.74 125.97C204.94 126.11 211.5 129.86 211.5 129.86L221.11 118.29L214.32 114.38Z" fill="black"/>
<path d="M221.11 118.29L211.35 128.22C211.195 128.381 211.093 128.587 211.06 128.809C211.027 129.03 211.063 129.257 211.164 129.457C211.265 129.657 211.426 129.82 211.624 129.925C211.822 130.029 212.048 130.069 212.27 130.04L221.11 128.76C222.06 128.76 222.06 118.29 221.11 118.29Z" fill="#BA68C8"/>
<path d="M229 115C229.044 113.847 229.202 112.702 229.47 111.58C229.74 110.462 230.136 109.378 230.65 108.35C231.152 107.343 231.777 106.403 232.51 105.55C233.221 104.711 234.074 104.003 235.03 103.46C235.779 102.97 236.646 102.69 237.54 102.65C238.219 102.628 238.882 102.86 239.4 103.3C239.957 103.803 240.365 104.45 240.58 105.17C240.88 106.098 241.038 107.065 241.05 108.04C241.05 108.87 241.05 109.76 241.05 110.69C241.05 111.62 241.05 112.5 241.05 113.33C241.016 114.48 240.858 115.623 240.58 116.74C240.309 117.864 239.913 118.954 239.4 119.99C238.905 121.001 238.28 121.942 237.54 122.79C236.823 123.617 235.975 124.319 235.03 124.87C234.275 125.357 233.407 125.643 232.51 125.7C231.831 125.721 231.168 125.49 230.65 125.05C230.095 124.533 229.688 123.877 229.47 123.15C229.18 122.223 229.022 121.261 229 120.29C229 119.49 229 118.63 229 117.69C229 116.75 229 115.88 229 115ZM237.48 115.24C237.48 114.88 237.48 114.48 237.48 114.03C237.48 113.58 237.48 113.14 237.48 112.68C237.48 112.22 237.48 111.79 237.48 111.37C237.48 110.95 237.48 110.58 237.48 110.25C237.468 109.826 237.401 109.406 237.28 109C237.197 108.691 237.035 108.408 236.81 108.18C236.611 107.989 236.346 107.882 236.07 107.88C235.713 107.899 235.368 108.013 235.07 108.21C234.695 108.448 234.358 108.741 234.07 109.08C233.776 109.435 233.528 109.824 233.33 110.24C233.129 110.676 232.975 111.132 232.87 111.6C232.759 112.087 232.689 112.582 232.66 113.08C232.66 113.43 232.66 113.82 232.66 114.25C232.66 114.68 232.66 115.13 232.66 115.58C232.66 116.03 232.66 116.48 232.66 116.92C232.66 117.36 232.66 117.74 232.66 118.08C232.646 118.828 232.882 119.56 233.33 120.16C233.72 120.59 234.33 120.57 235.12 120.11C235.915 119.657 236.537 118.954 236.89 118.11C237.26 117.204 237.464 116.238 237.49 115.26L237.48 115.24Z" fill="#6647BF"/>
<path d="M253.18 105.26C253.18 105.55 253.18 105.93 253.18 106.39C253.18 106.85 253.18 107.24 253.18 107.55C253.148 108.536 253.004 109.516 252.75 110.47C252.496 111.438 252.141 112.376 251.69 113.27C251.248 114.137 250.7 114.947 250.06 115.68C249.451 116.386 248.728 116.984 247.92 117.45C247.28 117.857 246.547 118.098 245.79 118.15C245.198 118.172 244.617 117.985 244.15 117.62C243.665 117.199 243.3 116.657 243.09 116.05C242.813 115.266 242.671 114.441 242.67 113.61C242.67 113.32 242.67 112.95 242.67 112.48C242.67 112.01 242.67 111.63 242.67 111.32C242.688 110.338 242.822 109.361 243.07 108.41C243.327 107.44 243.689 106.501 244.15 105.61C244.595 104.732 245.146 103.913 245.79 103.17C246.395 102.461 247.115 101.86 247.92 101.39C248.563 100.983 249.3 100.749 250.06 100.71C250.653 100.697 251.231 100.888 251.7 101.25C252.192 101.665 252.559 102.208 252.76 102.82C253.028 103.606 253.169 104.43 253.18 105.26V105.26ZM246.18 111.46C246.162 111.728 246.201 111.996 246.294 112.248C246.387 112.499 246.532 112.729 246.72 112.92C247.03 113.17 247.45 113.14 247.96 112.84C248.5 112.517 248.934 112.045 249.21 111.48C249.531 110.835 249.712 110.13 249.74 109.41C249.74 109.09 249.74 108.75 249.74 108.41C249.74 108.07 249.74 107.71 249.74 107.41C249.754 107.144 249.714 106.877 249.623 106.626C249.532 106.376 249.391 106.146 249.21 105.95C249.019 105.832 248.796 105.776 248.572 105.79C248.348 105.805 248.134 105.888 247.96 106.03C247.424 106.353 246.993 106.826 246.72 107.39C246.392 108.036 246.207 108.746 246.18 109.47C246.18 109.78 246.18 110.12 246.18 110.47C246.18 110.82 246.12 111.18 246.14 111.46H246.18Z" fill="#6647BF"/>
<path d="M261.06 109.87C260.75 110.053 260.412 110.185 260.06 110.26C259.819 110.312 259.571 110.312 259.33 110.26C259.139 110.209 258.962 110.117 258.81 109.99C258.68 109.876 258.563 109.749 258.46 109.61V115.94C258.459 116.169 258.405 116.396 258.3 116.6C258.224 116.781 258.1 116.936 257.94 117.05L255.5 118.45C255.45 118.492 255.386 118.515 255.32 118.515C255.254 118.515 255.19 118.492 255.14 118.45C255.081 118.386 255.036 118.31 255.009 118.227C254.981 118.144 254.971 118.057 254.98 117.97V98.4099C254.98 98.1835 255.035 97.9603 255.14 97.7599C255.21 97.576 255.336 97.4185 255.5 97.3099L257.85 95.9999C257.9 95.9528 257.966 95.9266 258.035 95.9266C258.104 95.9266 258.17 95.9528 258.22 95.9999C258.331 96.1339 258.385 96.3064 258.37 96.4799V97.1599L258.75 96.3199C258.886 96.0131 259.053 95.7215 259.25 95.4499C259.47 95.1506 259.714 94.8696 259.98 94.6099C260.307 94.3068 260.67 94.0449 261.06 93.8299C261.555 93.5182 262.117 93.3296 262.7 93.2799C262.945 93.2625 263.191 93.2952 263.423 93.376C263.656 93.4568 263.869 93.5841 264.05 93.7499C264.496 94.1855 264.82 94.7302 264.99 95.3299C265.258 96.2422 265.39 97.1892 265.38 98.1399C265.38 98.4299 265.38 98.8299 265.38 99.3299C265.38 99.8299 265.38 100.24 265.38 100.55C265.37 101.648 265.24 102.741 264.99 103.81C264.776 104.732 264.461 105.627 264.05 106.48C263.695 107.206 263.241 107.879 262.7 108.48C262.23 109.026 261.676 109.496 261.06 109.87ZM261.93 102.17C261.97 101.614 261.97 101.056 261.93 100.5C261.928 99.9514 261.772 99.4145 261.48 98.9499C261.22 98.5766 260.79 98.5766 260.19 98.9499C259.904 99.1091 259.653 99.3232 259.45 99.5799C259.248 99.8425 259.076 100.128 258.94 100.43C258.808 100.734 258.701 101.048 258.62 101.37C258.544 101.699 258.494 102.033 258.47 102.37C258.47 102.68 258.47 103.04 258.47 103.43C258.453 103.763 258.453 104.097 258.47 104.43C258.492 104.695 258.542 104.956 258.62 105.21C258.69 105.419 258.798 105.612 258.94 105.78C259.073 105.924 259.255 106.014 259.45 106.03C259.712 106.036 259.97 105.962 260.19 105.82C260.781 105.475 261.236 104.939 261.48 104.3C261.745 103.619 261.896 102.9 261.93 102.17V102.17Z" fill="#6647BF"/>
<path d="M272.92 98.0799C272.92 97.8599 272.87 97.72 272.77 97.66C272.613 97.596 272.437 97.596 272.28 97.66C271.968 97.7367 271.66 97.8336 271.36 97.9499C270.98 98.0899 270.51 98.24 269.94 98.41C269.568 98.5712 269.158 98.623 268.758 98.5592C268.357 98.4955 267.983 98.3188 267.68 98.0499C267.065 97.2499 266.782 96.2434 266.89 95.2399C266.895 94.5372 267.006 93.8392 267.22 93.1699C267.446 92.4691 267.755 91.7977 268.14 91.1699C268.536 90.4978 269.013 89.8765 269.56 89.3199C270.108 88.7578 270.731 88.2732 271.41 87.8799C271.976 87.5306 272.604 87.293 273.26 87.1799C273.752 87.0938 274.257 87.1316 274.73 87.2899C275.143 87.4222 275.497 87.6946 275.73 88.0599C275.974 88.4397 276.109 88.8789 276.12 89.3299C276.136 89.5555 276.087 89.7808 275.98 89.9799C275.9 90.1662 275.768 90.3257 275.6 90.4399L273.3 91.7599C273.16 91.8499 273.05 91.8599 272.97 91.8099L272.67 91.6599C272.525 91.5971 272.367 91.573 272.21 91.5899C271.93 91.6335 271.664 91.7395 271.43 91.8999C271.145 92.0566 270.894 92.2672 270.69 92.5199C270.495 92.7448 270.389 93.0326 270.39 93.3299C270.376 93.4855 270.407 93.642 270.48 93.7799C270.547 93.8599 270.677 93.8799 270.87 93.8399C271.146 93.7758 271.416 93.6923 271.68 93.5899L273.05 93.1299C274.22 92.7499 275.05 92.8699 275.61 93.4799C276.195 94.2532 276.48 95.2127 276.41 96.1799C276.404 96.8851 276.297 97.5857 276.09 98.2599C275.845 99.0018 275.509 99.7105 275.09 100.37C274.656 101.097 274.136 101.769 273.54 102.37C272.924 102.983 272.232 103.514 271.48 103.95C270.868 104.331 270.19 104.593 269.48 104.72C268.981 104.799 268.469 104.741 268 104.55C267.615 104.371 267.294 104.077 267.08 103.71C266.865 103.327 266.745 102.899 266.73 102.46C266.715 102.234 266.763 102.009 266.87 101.81C266.953 101.625 267.085 101.466 267.25 101.35L269.64 99.9699C269.79 99.8899 269.89 99.8799 269.95 99.9699C270.027 100.047 270.111 100.117 270.2 100.18C270.338 100.255 270.494 100.29 270.65 100.28C270.962 100.232 271.259 100.116 271.52 99.9399C271.896 99.7227 272.233 99.4457 272.52 99.1199C272.786 98.8398 272.93 98.4659 272.92 98.0799V98.0799Z" fill="#6647BF"/>
<path d="M281.63 90.4999C281.628 90.7261 281.573 90.9487 281.47 91.1499C281.4 91.3339 281.274 91.4913 281.11 91.5999L278.67 92.9999C278.622 93.0464 278.557 93.0723 278.49 93.0723C278.423 93.0723 278.358 93.0464 278.31 92.9999C278.251 92.9357 278.206 92.8597 278.179 92.777C278.151 92.6943 278.141 92.6067 278.15 92.5199V79.6899C278.151 79.4604 278.206 79.2343 278.31 79.0299C278.38 78.8459 278.506 78.6885 278.67 78.5799L281.11 77.1799C281.158 77.1335 281.223 77.1075 281.29 77.1075C281.357 77.1075 281.422 77.1335 281.47 77.1799C281.529 77.2442 281.574 77.3202 281.601 77.4029C281.629 77.4856 281.639 77.5732 281.63 77.6599V90.4999ZM281.63 96.8899C281.63 97.1164 281.576 97.3395 281.47 97.5399C281.4 97.7239 281.274 97.8813 281.11 97.9899L278.67 99.3999C278.621 99.4442 278.556 99.4687 278.49 99.4687C278.424 99.4687 278.36 99.4442 278.31 99.3999C278.251 99.3379 278.206 99.2637 278.178 99.1826C278.151 99.1014 278.141 99.0152 278.15 98.9299V95.9299C278.152 95.7037 278.207 95.4811 278.31 95.2799C278.38 95.0959 278.506 94.9385 278.67 94.8299L281.11 93.4199C281.16 93.3756 281.224 93.3512 281.29 93.3512C281.356 93.3512 281.421 93.3756 281.47 93.4199C281.529 93.4842 281.574 93.5602 281.601 93.6429C281.629 93.7256 281.639 93.8132 281.63 93.8999V96.8899Z" fill="#6647BF"/>
</svg>
